<?xml version="1.0" encoding="UTF-8" standalone="no"?>
<!-- Created with Inkscape (http://www.inkscape.org/) -->

<svg
   xmlns:dc="http://purl.org/dc/elements/1.1/"
   xmlns:cc="http://creativecommons.org/ns#"
   xmlns:rdf="http://www.w3.org/1999/02/22-rdf-syntax-ns#"
   xmlns:svg="http://www.w3.org/2000/svg"
   xmlns="http://www.w3.org/2000/svg"
   xmlns:xlink="http://www.w3.org/1999/xlink"
   xmlns:sodipodi="http://sodipodi.sourceforge.net/DTD/sodipodi-0.dtd"
   xmlns:inkscape="http://www.inkscape.org/namespaces/inkscape"
   version="1.1"
   width="1000"
   height="1000"
   id="svg2"
   inkscape:version="0.47 r22583"
   sodipodi:docname="Cardinal_mark_diagram.svg">
  <metadata
     id="metadata180">
    <rdf:RDF>
      <cc:Work
         rdf:about="">
        <dc:format>image/svg+xml</dc:format>
        <dc:type
           rdf:resource="http://purl.org/dc/dcmitype/StillImage" />
      </cc:Work>
    </rdf:RDF>
  </metadata>
  <sodipodi:namedview
     pagecolor="#ffffff"
     bordercolor="#666666"
     borderopacity="1"
     objecttolerance="10"
     gridtolerance="10"
     guidetolerance="10"
     inkscape:pageopacity="0"
     inkscape:pageshadow="2"
     inkscape:window-width="1280"
     inkscape:window-height="781"
     id="namedview178"
     showgrid="false"
     inkscape:zoom="0.6675088"
     inkscape:cx="377.95719"
     inkscape:cy="350.36021"
     inkscape:window-x="-4"
     inkscape:window-y="-4"
     inkscape:window-maximized="1"
     inkscape:current-layer="svg2" />
  <defs
     id="defs4">
    <inkscape:perspective
       sodipodi:type="inkscape:persp3d"
       inkscape:vp_x="0 : 500 : 1"
       inkscape:vp_y="0 : 1000 : 0"
       inkscape:vp_z="1000 : 500 : 1"
       inkscape:persp3d-origin="500 : 333.33333 : 1"
       id="perspective182" />
    <linearGradient
       id="West">
      <stop
         id="stop4491"
         style="stop-color:#ffff00;stop-opacity:1"
         offset="0" />
      <stop
         id="stop4493"
         style="stop-color:#ffff00;stop-opacity:1"
         offset="0.33000001" />
      <stop
         id="stop4495"
         style="stop-color:#000000;stop-opacity:1"
         offset="0.33000001" />
      <stop
         id="stop4497"
         style="stop-color:#000000;stop-opacity:1"
         offset="0.67000002" />
      <stop
         id="stop4499"
         style="stop-color:#ffff00;stop-opacity:1"
         offset="0.67000002" />
      <stop
         id="stop4501"
         style="stop-color:#ffff00;stop-opacity:1"
         offset="1" />
    </linearGradient>
    <linearGradient
       id="South">
      <stop
         id="stop4078"
         style="stop-color:#ffff00;stop-opacity:1"
         offset="0" />
      <stop
         id="stop4080"
         style="stop-color:#ffff00;stop-opacity:1"
         offset="0.5" />
      <stop
         id="stop4082"
         style="stop-color:#000000;stop-opacity:1"
         offset="0.5" />
      <stop
         id="stop4084"
         style="stop-color:#000000;stop-opacity:1"
         offset="1" />
    </linearGradient>
    <linearGradient
       id="East">
      <stop
         id="stop3709"
         style="stop-color:#000000;stop-opacity:1"
         offset="0" />
      <stop
         id="stop3711"
         style="stop-color:#000000;stop-opacity:1"
         offset="0.33000001" />
      <stop
         id="stop3713"
         style="stop-color:#ffff00;stop-opacity:1"
         offset="0.33000001" />
      <stop
         id="stop3717"
         style="stop-color:#ffff00;stop-opacity:1"
         offset="0.67000002" />
      <stop
         id="stop3719"
         style="stop-color:#000000;stop-opacity:1"
         offset="0.67000002" />
      <stop
         id="stop3715"
         style="stop-color:#000000;stop-opacity:1"
         offset="1" />
    </linearGradient>
    <linearGradient
       id="North">
      <stop
         id="stop3430"
         style="stop-color:#000000;stop-opacity:1"
         offset="0" />
      <stop
         id="stop3436"
         style="stop-color:#000000;stop-opacity:1"
         offset="0.5" />
      <stop
         id="stop3438"
         style="stop-color:#ffff00;stop-opacity:1"
         offset="0.5" />
      <stop
         id="stop3432"
         style="stop-color:#ffff00;stop-opacity:1"
         offset="1" />
    </linearGradient>
    <linearGradient
       x1="445.65134"
       y1="389.41846"
       x2="445.65134"
       y2="209.93977"
       id="linearGradient3446"
       xlink:href="#North"
       gradientUnits="userSpaceOnUse" />
    <linearGradient
       x1="533.86591"
       y1="389.32275"
       x2="533.86591"
       y2="240.78702"
       id="linearGradient3454"
       xlink:href="#North"
       gradientUnits="userSpaceOnUse" />
    <linearGradient
       x1="533.86591"
       y1="389.32275"
       x2="533.86591"
       y2="240.78702"
       id="linearGradient3696"
       xlink:href="#East"
       gradientUnits="userSpaceOnUse"
       gradientTransform="translate(236.75792,236.7578)" />
    <linearGradient
       x1="682.40924"
       y1="446.76288"
       x2="682.40924"
       y2="626.08051"
       id="linearGradient3735"
       xlink:href="#East"
       gradientUnits="userSpaceOnUse" />
    <linearGradient
       x1="584.13867"
       y1="759.21289"
       x2="584.13867"
       y2="610.67719"
       id="linearGradient4097"
       xlink:href="#South"
       gradientUnits="userSpaceOnUse"
       gradientTransform="matrix(1,0,0,-1,0,1473.5156)" />
    <linearGradient
       x1="445.65134"
       y1="210.0051"
       x2="445.65134"
       y2="389.32272"
       id="linearGradient4100"
       xlink:href="#South"
       gradientUnits="userSpaceOnUse"
       gradientTransform="translate(0,473.5157)" />
    <linearGradient
       x1="682.40924"
       y1="446.76288"
       x2="682.40924"
       y2="626.08051"
       id="linearGradient4199"
       xlink:href="#East"
       gradientUnits="userSpaceOnUse" />
    <linearGradient
       x1="533.86591"
       y1="389.32275"
       x2="533.86591"
       y2="240.78702"
       id="linearGradient4201"
       xlink:href="#East"
       gradientUnits="userSpaceOnUse"
       gradientTransform="translate(236.75792,236.7578)" />
    <linearGradient
       x1="533.86591"
       y1="389.32275"
       x2="533.86591"
       y2="240.78702"
       id="linearGradient4206"
       xlink:href="#East"
       gradientUnits="userSpaceOnUse"
       gradientTransform="matrix(-1,0,0,1,763.24208,236.7578)" />
    <linearGradient
       x1="682.40924"
       y1="446.76288"
       x2="682.40924"
       y2="626.08051"
       id="linearGradient4209"
       xlink:href="#East"
       gradientUnits="userSpaceOnUse"
       gradientTransform="matrix(-1,0,0,1,1000,0)" />
    <linearGradient
       x1="682.40924"
       y1="446.76288"
       x2="682.40924"
       y2="626.08051"
       id="linearGradient4243"
       xlink:href="#East"
       gradientUnits="userSpaceOnUse"
       gradientTransform="matrix(-1,0,0,1,1000,0)" />
    <linearGradient
       x1="533.86591"
       y1="389.32275"
       x2="533.86591"
       y2="240.78702"
       id="linearGradient4245"
       xlink:href="#East"
       gradientUnits="userSpaceOnUse"
       gradientTransform="matrix(-1,0,0,1,763.24208,236.7578)" />
    <linearGradient
       x1="682.40924"
       y1="446.76288"
       x2="682.40924"
       y2="626.08051"
       id="linearGradient4253"
       xlink:href="#West"
       gradientUnits="userSpaceOnUse"
       gradientTransform="translate(-473.51584,0)" />
    <linearGradient
       x1="584.13867"
       y1="240.78702"
       x2="584.13867"
       y2="389.32275"
       id="linearGradient4264"
       xlink:href="#North"
       gradientUnits="userSpaceOnUse" />
    <linearGradient
       x1="445.65134"
       y1="210.0051"
       x2="445.65134"
       y2="389.32272"
       id="linearGradient4267"
       xlink:href="#North"
       gradientUnits="userSpaceOnUse" />
    <linearGradient
       x1="682.40924"
       y1="446.76288"
       x2="682.40924"
       y2="626.08051"
       id="linearGradient4355"
       xlink:href="#East"
       gradientUnits="userSpaceOnUse" />
    <linearGradient
       x1="533.86591"
       y1="389.32275"
       x2="533.86591"
       y2="240.78702"
       id="linearGradient4357"
       xlink:href="#East"
       gradientUnits="userSpaceOnUse"
       gradientTransform="translate(236.75792,236.7578)" />
    <linearGradient
       x1="533.86591"
       y1="389.32275"
       x2="533.86591"
       y2="240.78702"
       id="linearGradient4362"
       xlink:href="#East"
       gradientUnits="userSpaceOnUse"
       gradientTransform="translate(236.75792,236.7578)" />
    <linearGradient
       x1="682.40924"
       y1="446.76288"
       x2="682.40924"
       y2="626.08051"
       id="linearGradient4365"
       xlink:href="#East"
       gradientUnits="userSpaceOnUse" />
    <linearGradient
       x1="347.38077"
       y1="626.08057"
       x2="347.38077"
       y2="477.54483"
       id="linearGradient4509"
       xlink:href="#West"
       gradientUnits="userSpaceOnUse" />
  </defs>
  <g
     id="layer1"
     transform="translate(0,-20)">
    <path
       d="M 170.50209,170.50209 829.4979,829.4979"
       id="path3165"
       style="fill:none;stroke:#000000;stroke-width:2;stroke-linecap:butt;stroke-linejoin:bevel;stroke-miterlimit:4;stroke-opacity:1;stroke-dasharray:none;stroke-dashoffset:0;marker:none;visibility:visible;display:inline;overflow:visible;enable-background:accumulate" />
    <path
       d="M 829.4979,170.5021 170.5021,829.49791"
       id="path3167"
       style="fill:none;stroke:#000000;stroke-width:2;stroke-linecap:butt;stroke-linejoin:bevel;stroke-miterlimit:4;stroke-opacity:1;stroke-dasharray:none;stroke-dashoffset:0;marker:none;visibility:visible;display:inline;overflow:visible;enable-background:accumulate" />
    <path
       d="m 583.68203,489.53973 a 60.669456,60.669456 0 1 1 -121.33891,0 60.669456,60.669456 0 1 1 121.33891,0 z"
       transform="translate(-23.012573,10.460266)"
       id="path2383"
       style="fill:#ff0000;fill-opacity:1;fill-rule:evenodd;stroke:#000000;stroke-width:2;stroke-linecap:butt;stroke-linejoin:bevel;stroke-miterlimit:4;stroke-opacity:1;stroke-dasharray:none;stroke-dashoffset:0;marker:none;visibility:visible;display:inline;overflow:visible;enable-background:accumulate" />
    <path
       d="m 457.37793,506.43262 3.32227,0 c 1.92316,0 3.31541,-0.50358 4.17675,-1.51074 0.86132,-1.00716 1.29198,-2.64095 1.292,-4.90137 -2e-5,-2.25129 -0.40106,-3.90559 -1.20313,-4.96289 -0.8021,-1.05728 -2.05535,-1.58592 -3.75977,-1.58594 l -3.82812,0 0,12.96094 z m -4.06055,3.63672 0,-20.13868 7.88867,0 c 3.08984,2e-5 5.39354,0.83401 6.91114,2.50196 1.51756,1.66798 2.27635,4.19728 2.27636,7.58789 -1e-5,1.84115 -0.28029,3.46355 -0.84082,4.86719 -0.56056,1.40364 -1.37404,2.53385 -2.44043,3.39062 -0.80209,0.63802 -1.71355,1.09603 -2.73437,1.37402 -1.02085,0.278 -2.45183,0.417 -4.29297,0.417 l -6.76758,0 z m 28.51953,-1.84571 c -0.50131,0.77474 -1.15756,1.36491 -1.96875,1.77051 -0.8112,0.4056 -1.75456,0.6084 -2.83007,0.6084 -1.44011,0 -2.54981,-0.41016 -3.32911,-1.23047 -0.77929,-0.82031 -1.16894,-1.98698 -1.16894,-3.5 0,-1.40364 0.38965,-2.4746 1.16894,-3.21289 0.7793,-0.73827 2.06673,-1.24413 3.86231,-1.51758 0.41015,-0.0638 0.94791,-0.13671 1.61328,-0.21875 1.68619,-0.21874 2.52929,-0.70637 2.5293,-1.46289 -10e-6,-0.60155 -0.18686,-1.03221 -0.56055,-1.29199 -0.37371,-0.25975 -0.99806,-0.38964 -1.87305,-0.38965 -0.80209,10e-6 -1.41732,0.15952 -1.8457,0.47852 -0.42839,0.31902 -0.64258,0.77475 -0.64258,1.36718 l 0,0.21875 -3.71875,0 0,-0.27343 c 0,-1.52213 0.53776,-2.71842 1.61328,-3.58887 1.07552,-0.87043 2.5612,-1.30565 4.45703,-1.30567 2.07812,2e-5 3.67089,0.36005 4.77833,1.08008 1.1074,0.72007 1.66111,1.75913 1.66113,3.11719 l 0,8.44922 c -2e-5,0.61979 0.0638,1.08236 0.1914,1.38769 0.12759,0.30534 0.34179,0.53549 0.64258,0.69043 l 0,0.66993 -4.14258,0 c -0.13673,-0.25521 -0.24154,-0.53776 -0.31445,-0.84766 -0.0729,-0.30989 -0.11394,-0.64258 -0.12305,-0.99805 l 0,0 z m -0.0684,-5.46875 c -0.64714,0.30079 -1.39226,0.54233 -2.23535,0.72461 -0.8431,0.1823 -1.27832,0.278 -1.30566,0.28711 -0.70183,0.20053 -1.19174,0.45118 -1.46973,0.75195 -0.278,0.30079 -0.41699,0.7155 -0.41699,1.24415 0,0.54687 0.17773,0.98209 0.5332,1.30566 0.35547,0.32357 0.83398,0.48535 1.43555,0.48535 1.07551,0 1.92089,-0.30306 2.53613,-0.90918 0.61523,-0.60611 0.92284,-1.43326 0.92285,-2.48144 l 0,-1.40821 z m 7.30079,7.31446 0,-14.86133 3.89648,0 0,1.76367 c 0.55598,-0.72004 1.21223,-1.26008 1.96875,-1.62012 0.7565,-0.36001 1.5996,-0.54002 2.5293,-0.54004 1.64061,2e-5 2.8688,0.42613 3.68457,1.27832 0.81574,0.85223 1.22362,2.13511 1.22363,3.84864 l 0,10.13086 -3.97852,0 0,-8.98243 c -10e-6,-1.06639 -0.18002,-1.82746 -0.54003,-2.2832 -0.36004,-0.45572 -0.94565,-0.68358 -1.75684,-0.68359 -0.93881,1e-5 -1.68165,0.28028 -2.22852,0.84082 -0.54688,0.56055 -0.82031,1.3239 -0.82031,2.29004 l 0,8.81836 -3.97851,0 z m 19.98828,-7.66993 c -10e-6,1.39454 0.28027,2.4655 0.84082,3.21289 0.56054,0.7474 1.36034,1.1211 2.39941,1.1211 1.04817,0 1.84797,-0.3737 2.39942,-1.1211 0.55142,-0.74739 0.82713,-1.83658 0.82714,-3.26757 -10e-6,-1.35807 -0.28484,-2.40852 -0.85449,-3.15137 -0.56967,-0.74283 -1.37859,-1.11425 -2.42676,-1.11426 -1.01172,1e-5 -1.79558,0.37827 -2.35156,1.13477 -0.55599,0.75652 -0.83399,1.81837 -0.83398,3.18554 l 0,0 z m -3.59571,9.10547 4.34766,-0.0137 c 0.1276,0.5013 0.38964,0.875 0.78613,1.12109 0.39648,0.2461 0.9274,0.36914 1.59278,0.36915 1.23957,-10e-6 2.10546,-0.26205 2.59765,-0.78614 0.49218,-0.52409 0.73827,-1.49251 0.73828,-2.90527 l 0,-1.32617 c -0.41928,0.72005 -0.96387,1.25097 -1.63379,1.59277 -0.66993,0.3418 -1.50619,0.5127 -2.50878,0.5127 -1.92319,0 -3.46355,-0.68588 -4.6211,-2.05762 -1.15755,-1.37174 -1.73633,-3.19694 -1.73633,-5.47559 0,-2.40624 0.56739,-4.31802 1.70215,-5.73535 1.13476,-1.4173 2.66373,-2.12596 4.58692,-2.12598 1.00259,2e-5 1.85708,0.19143 2.56347,0.57422 0.70637,0.38283 1.28287,0.96616 1.7295,1.75 l 0,-1.79101 3.77343,0 0,13.87695 c -10e-6,1.55859 -0.14585,2.74805 -0.4375,3.56836 -0.29168,0.82031 -0.78842,1.50846 -1.49023,2.06445 -0.60158,0.46484 -1.36492,0.81803 -2.29004,1.05957 -0.92514,0.24153 -1.98015,0.3623 -3.16504,0.36231 -1.98698,-1e-5 -3.55013,-0.40561 -4.68945,-1.2168 -1.13933,-0.8112 -1.75456,-1.95052 -1.84571,-3.41797 l 0,0 z m 26.56446,-5.94726 3.96484,0 c -0.40106,1.56771 -1.20997,2.7959 -2.42676,3.68457 -1.2168,0.88867 -2.7002,1.333 -4.45019,1.33301 -2.15105,-10e-6 -3.85548,-0.72234 -5.11328,-2.167 -1.25782,-1.44466 -1.88672,-3.40201 -1.88672,-5.87207 0,-2.43358 0.61979,-4.3522 1.85937,-5.75586 1.23958,-1.40363 2.93489,-2.10545 5.08594,-2.10547 2.27864,2e-5 4.03775,0.69045 5.27734,2.07129 1.23957,1.38088 1.85936,3.34734 1.85938,5.89942 -2e-5,0.28256 -0.002,0.49447 -0.007,0.63574 -0.005,0.14128 -0.016,0.27572 -0.0342,0.40332 l -9.92578,0 c 0.0547,1.16667 0.33951,2.04623 0.85449,2.63867 0.51497,0.59245 1.25553,0.88868 2.22168,0.88867 0.68359,1e-5 1.24414,-0.13443 1.68164,-0.40332 0.43749,-0.26887 0.78385,-0.68586 1.03907,-1.25097 l 0,0 z m -5.79688,-4.48438 5.85156,0 c -0.0365,-1.00259 -0.30307,-1.76594 -0.7998,-2.29004 -0.49675,-0.52407 -1.20997,-0.78612 -2.13965,-0.78613 -0.86589,10e-6 -1.54721,0.26434 -2.04394,0.79297 -0.49675,0.52866 -0.78614,1.28972 -0.86817,2.2832 l 0,0 z m 12.60547,8.9961 0,-14.86133 3.69141,0 0,2.54297 c 0.51952,-1.02082 1.12564,-1.7705 1.81836,-2.24903 0.6927,-0.4785 1.51757,-0.71776 2.47461,-0.71777 0.15493,1e-5 0.2757,0.002 0.3623,0.007 0.0866,0.005 0.15722,0.0114 0.21191,0.0205 l 0.0137,4.03321 -1.32618,0 c -1.08464,10e-6 -1.90039,0.28256 -2.44726,0.84765 -0.54688,0.56512 -0.82032,1.40366 -0.82031,2.51563 l 0,7.86133 -3.97852,0 z"
       id="text2385"
       style="font-size:28px;font-style:normal;font-variant:normal;font-weight:bold;font-stretch:normal;text-align:center;line-height:125%;writing-mode:lr-tb;text-anchor:middle;fill:#000000;fill-opacity:1;stroke:none;font-family:Swis721 BT;-inkscape-font-specification:Swis721 BT Bold" />
    <path
       d="m 478.66016,112.2251 0,-51.785159 11.14453,0 21.02343,35.578125 0,-35.578125 10.51172,0 0,51.785159 -11.0039,0 -21.16406,-35.578127 0,35.578127 -10.51172,0 z"
       id="text3169"
       style="font-size:72px;font-style:normal;font-variant:normal;font-weight:bold;font-stretch:normal;text-align:center;line-height:125%;writing-mode:lr-tb;text-anchor:middle;fill:#000000;fill-opacity:1;stroke:none;font-family:Swis721 BT;-inkscape-font-specification:Swis721 BT Bold" />
    <path
       d="m 895.56213,525.89258 0,-51.78516 37.58204,0 0,9 -27.07032,0 0,11.03906 24.75,0 0,8.85938 -24.75,0 0,13.32422 28.33594,0 0,9.5625 -38.84766,0 z"
       id="text3173"
       style="font-size:72px;font-style:normal;font-variant:normal;font-weight:bold;font-stretch:normal;text-align:center;line-height:125%;writing-mode:lr-tb;text-anchor:middle;fill:#000000;fill-opacity:1;stroke:none;font-family:Swis721 BT;-inkscape-font-specification:Swis721 BT Bold" />
    <path
       d="m 478.94141,923.56396 10.51171,0 c 0.39843,2.83596 1.55858,4.93947 3.48047,6.31055 1.92186,1.3711 4.6992,2.05665 8.33203,2.05664 3.09373,10e-6 5.42576,-0.55077 6.9961,-1.65234 1.57028,-1.10155 2.35543,-2.73046 2.35547,-4.88672 -4e-5,-3.14061 -4.51175,-5.74217 -13.53516,-7.80469 -0.11721,-0.0234 -0.22268,-0.0468 -0.31641,-0.0703 -0.23439,-0.0469 -0.59767,-0.12888 -1.08984,-0.24609 -4.82814,-1.05467 -8.27345,-2.23826 -10.33594,-3.55079 -1.82813,-1.17184 -3.22266,-2.74801 -4.18359,-4.72851 -0.96094,-1.98044 -1.44141,-4.31833 -1.44141,-7.01367 0,-5.03902 1.71094,-8.90035 5.13282,-11.58399 3.42186,-2.68354 8.36717,-4.02533 14.83593,-4.02539 6.04685,6e-5 10.77536,1.42974 14.18555,4.28906 3.41012,2.85943 5.20894,6.89067 5.39648,12.09375 l -10.23046,0 c -0.18754,-2.50777 -1.14847,-4.41792 -2.88282,-5.73046 -1.7344,-1.31246 -4.20705,-1.96871 -7.41796,-1.96875 -2.78909,4e-5 -4.93948,0.54496 -6.45118,1.63476 -1.51173,1.08989 -2.26759,2.64262 -2.26758,4.6582 -1e-5,2.74223 2.94139,4.79301 8.82422,6.15235 1.59373,0.37503 2.83592,0.668 3.72657,0.8789 3.7734,0.96097 6.45114,1.71097 8.0332,2.25 1.58199,0.5391 2.95895,1.13675 4.13086,1.79297 2.10933,1.1719 3.69136,2.72464 4.74609,4.65821 1.05465,1.93361 1.58199,4.24806 1.58203,6.94336 -4e-5,5.39063 -1.81645,9.56836 -5.44921,12.5332 -3.63285,2.96484 -8.75394,4.44726 -15.36329,4.44726 -6.51564,0 -11.62501,-1.51171 -15.32812,-4.53515 -3.70313,-3.02343 -5.69532,-7.32421 -5.97656,-12.90235 l 0,0 z"
       id="text3185"
       style="font-size:72px;font-style:normal;font-variant:normal;font-weight:bold;font-stretch:normal;text-align:center;line-height:125%;writing-mode:lr-tb;text-anchor:middle;fill:#000000;fill-opacity:1;stroke:none;font-family:Swis721 BT;-inkscape-font-specification:Swis721 BT Bold" />
    <path
       d="m 78.072304,525.89258 -14.835938,-51.78516 11.039063,0 8.859375,36.52735 7.488281,-36.52735 11.355465,0 7.48829,36.52735 8.85937,-36.52735 10.93359,0 -14.80078,51.78516 -10.16015,0 -8.015629,-39.65625 -8.050781,39.65625 -10.160156,0 z"
       id="text3189"
       style="font-size:72px;font-style:normal;font-variant:normal;font-weight:bold;font-stretch:normal;text-align:center;line-height:125%;writing-mode:lr-tb;text-anchor:middle;fill:#000000;fill-opacity:1;stroke:none;font-family:Swis721 BT;-inkscape-font-specification:Swis721 BT Bold" />
    <path
       d="m 347.10828,178.9572 -2.21485,-1.8457 1.33985,-1.70899 2.69336,2.20117 c 0.62889,-0.68359 1.1074,-1.55858 1.43554,-2.625 0.32811,-1.0664 0.49217,-2.26952 0.49219,-3.60937 -2e-5,-2.58853 -0.59019,-4.60741 -1.77051,-6.05664 -1.18035,-1.4492 -2.8187,-2.17381 -4.91504,-2.17383 -2.10547,2e-5 -3.75293,0.72463 -4.94238,2.17383 -1.18946,1.44923 -1.78418,3.46811 -1.78418,6.05664 0,2.57943 0.59472,4.59603 1.78418,6.0498 1.18945,1.45378 2.83691,2.18067 4.94238,2.18067 0.55598,0 1.07551,-0.0524 1.5586,-0.15723 0.48306,-0.10481 0.94334,-0.2666 1.38086,-0.48535 l 0,0 z m 2.20117,1.73633 c -0.78387,0.42838 -1.59963,0.74967 -2.44727,0.96386 -0.84767,0.2142 -1.74545,0.32129 -2.69336,0.32129 -2.98959,0 -5.32975,-0.93652 -7.0205,-2.80957 -1.69076,-1.87304 -2.53614,-4.47297 -2.53614,-7.7998 0,-3.32681 0.84538,-5.92674 2.53614,-7.79981 1.69075,-1.87302 4.03091,-2.80955 7.0205,-2.80957 2.96223,2e-5 5.28872,0.9411 6.9795,2.82325 1.69073,1.88217 2.53611,4.47755 2.53613,7.78613 -2e-5,1.63152 -0.21421,3.09669 -0.64258,4.39551 -0.4284,1.29883 -1.08465,2.47233 -1.96875,3.5205 l 2.41992,2.02344 -1.35351,1.70899 -2.83008,-2.32422 z m -17.37695,27.8053 -7.16407,-20.13867 2.83008,0 5.79688,16.85742 5.61914,-16.85742 2.85742,0 -7.08203,20.13867 -2.85742,0 z m 23.73437,-2.46093 -2.21484,-1.84571 1.33984,-1.70898 2.69336,2.20117 c 0.62889,-0.68359 1.1074,-1.55859 1.43555,-2.625 0.3281,-1.0664 0.49217,-2.26952 0.49218,-3.60937 -10e-6,-2.58853 -0.59018,-4.60741 -1.7705,-6.05664 -1.18036,-1.44921 -2.8187,-2.17381 -4.91504,-2.17383 -2.10548,2e-5 -3.75294,0.72462 -4.94239,2.17383 -1.18945,1.44923 -1.78418,3.46811 -1.78418,6.05664 0,2.57943 0.59473,4.59603 1.78418,6.0498 1.18945,1.45378 2.83691,2.18067 4.94239,2.18067 0.55598,0 1.07551,-0.0524 1.55859,-0.15723 0.48306,-0.10482 0.94335,-0.2666 1.38086,-0.48535 l 0,0 z m 2.20117,1.73633 c -0.78387,0.42838 -1.59962,0.74967 -2.44726,0.96386 -0.84767,0.21419 -1.74546,0.32129 -2.69336,0.32129 -2.98959,0 -5.32976,-0.93652 -7.02051,-2.80957 -1.69076,-1.87304 -2.53613,-4.47297 -2.53613,-7.7998 0,-3.32681 0.84537,-5.92675 2.53613,-7.79981 1.69075,-1.87303 4.03092,-2.80955 7.02051,-2.80957 2.96222,2e-5 5.28872,0.9411 6.97949,2.82324 1.69073,1.88218 2.53611,4.47756 2.53613,7.78614 -2e-5,1.63152 -0.21421,3.09668 -0.64258,4.3955 -0.4284,1.29884 -1.08465,2.47234 -1.96875,3.52051 l 2.41993,2.02344 -1.35352,1.70898 -2.83008,-2.32421 z"
       id="text3294"
       style="font-size:28px;font-style:normal;font-variant:normal;font-weight:normal;font-stretch:normal;text-align:center;line-height:96.71677947%;writing-mode:lr-tb;text-anchor:middle;fill:#000000;fill-opacity:1;stroke:none;font-family:Swis721 BT;-inkscape-font-specification:Swis721 BT"
       sodipodi:nodetypes="ccccssssssssscccsssssssssccccccccccccccccssssssssscccssssssssscccc" />
    <path
       d="m 456.75713,202.05967 -38.09912,0 19.04956,-28.22158 19.04956,28.22158 z"
       id="path3242"
       style="fill:#000000;fill-opacity:1;fill-rule:evenodd;stroke:none;stroke-width:1;marker:none;visibility:visible;display:inline;overflow:visible;enable-background:accumulate" />
    <path
       d="m 456.75713,165.36508 -38.09912,0 19.04956,-28.22158 19.04956,28.22158 z"
       id="path3244"
       style="fill:#000000;fill-opacity:1;fill-rule:evenodd;stroke:none;stroke-width:1;marker:none;visibility:visible;display:inline;overflow:visible;enable-background:accumulate" />
    <path
       d="m 552.90119,232.85698 -38.09913,0 19.04957,-28.22158 19.04956,28.22158 z"
       id="path3262"
       style="fill:#000000;fill-opacity:1;fill-rule:evenodd;stroke:none;stroke-width:1;marker:none;visibility:visible;display:inline;overflow:visible;enable-background:accumulate" />
    <path
       d="m 552.90119,196.16239 -38.09913,0 19.04957,-28.22157 19.04956,28.22157 z"
       id="path3264"
       style="fill:#000000;fill-opacity:1;fill-rule:evenodd;stroke:none;stroke-width:1;marker:none;visibility:visible;display:inline;overflow:visible;enable-background:accumulate" />
    <rect
       width="4.3199978"
       height="54.92569"
       x="435.54758"
       y="159.07939"
       id="rect3300"
       style="fill:#000000;fill-opacity:1;fill-rule:evenodd;stroke:none;stroke-width:1;marker:none;visibility:visible;display:inline;overflow:visible;enable-background:accumulate" />
    <rect
       width="4.3199978"
       height="54.92569"
       x="531.69165"
       y="189.86133"
       id="rect3302"
       style="fill:#000000;fill-opacity:1;fill-rule:evenodd;stroke:none;stroke-width:1;marker:none;visibility:visible;display:inline;overflow:visible;enable-background:accumulate" />
    <g
       id="g4309">
      <rect
         width="180"
         height="25"
         x="574.3183"
         y="161.27946"
         id="rect3304"
         style="fill:#000000;fill-opacity:1;fill-rule:evenodd;stroke:#000000;stroke-width:1;stroke-linecap:butt;stroke-linejoin:miter;stroke-miterlimit:4;stroke-opacity:1;stroke-dasharray:none;stroke-dashoffset:0;marker:none;visibility:visible;display:inline;overflow:visible;enable-background:accumulate" />
      <rect
         width="3"
         height="25"
         x="574.3183"
         y="161.27946"
         id="rect3328"
         style="fill:#ffffff;fill-opacity:1;fill-rule:evenodd;stroke:none;stroke-width:1;marker:none;visibility:visible;display:inline;overflow:visible;enable-background:accumulate" />
      <use
         transform="translate(6,0)"
         id="use3362"
         x="0"
         y="0"
         width="1000"
         height="1000"
         xlink:href="#rect3328" />
      <use
         transform="translate(12,0)"
         id="use3364"
         x="0"
         y="0"
         width="1000"
         height="1000"
         xlink:href="#rect3328" />
      <use
         transform="translate(18,0)"
         id="use3366"
         x="0"
         y="0"
         width="1000"
         height="1000"
         xlink:href="#rect3328" />
      <use
         transform="translate(24,0)"
         id="use3368"
         x="0"
         y="0"
         width="1000"
         height="1000"
         xlink:href="#rect3328" />
      <use
         transform="translate(30,0)"
         id="use3370"
         x="0"
         y="0"
         width="1000"
         height="1000"
         xlink:href="#rect3328" />
      <use
         transform="translate(36,0)"
         id="use3372"
         x="0"
         y="0"
         width="1000"
         height="1000"
         xlink:href="#rect3328" />
      <use
         transform="translate(42,0)"
         id="use3374"
         x="0"
         y="0"
         width="1000"
         height="1000"
         xlink:href="#rect3328" />
      <use
         transform="translate(48,0)"
         id="use3376"
         x="0"
         y="0"
         width="1000"
         height="1000"
         xlink:href="#rect3328" />
      <use
         transform="translate(54,0)"
         id="use3378"
         x="0"
         y="0"
         width="1000"
         height="1000"
         xlink:href="#rect3328" />
      <use
         transform="translate(60,0)"
         id="use3380"
         x="0"
         y="0"
         width="1000"
         height="1000"
         xlink:href="#rect3328" />
      <use
         transform="translate(66,0)"
         id="use3382"
         x="0"
         y="0"
         width="1000"
         height="1000"
         xlink:href="#rect3328" />
      <use
         transform="translate(72,0)"
         id="use3384"
         x="0"
         y="0"
         width="1000"
         height="1000"
         xlink:href="#rect3328" />
      <use
         transform="translate(78,0)"
         id="use3386"
         x="0"
         y="0"
         width="1000"
         height="1000"
         xlink:href="#rect3328" />
      <use
         transform="translate(84,0)"
         id="use3388"
         x="0"
         y="0"
         width="1000"
         height="1000"
         xlink:href="#rect3328" />
      <use
         transform="translate(90,0)"
         id="use3390"
         x="0"
         y="0"
         width="1000"
         height="1000"
         xlink:href="#rect3328" />
      <use
         transform="translate(96,0)"
         id="use3392"
         x="0"
         y="0"
         width="1000"
         height="1000"
         xlink:href="#rect3328" />
      <use
         transform="translate(102,0)"
         id="use3394"
         x="0"
         y="0"
         width="1000"
         height="1000"
         xlink:href="#rect3328" />
      <use
         transform="translate(108,0)"
         id="use3396"
         x="0"
         y="0"
         width="1000"
         height="1000"
         xlink:href="#rect3328" />
      <use
         transform="translate(114,0)"
         id="use3398"
         x="0"
         y="0"
         width="1000"
         height="1000"
         xlink:href="#rect3328" />
      <use
         transform="translate(120,0)"
         id="use3400"
         x="0"
         y="0"
         width="1000"
         height="1000"
         xlink:href="#rect3328" />
      <use
         transform="translate(126,0)"
         id="use3402"
         x="0"
         y="0"
         width="1000"
         height="1000"
         xlink:href="#rect3328" />
      <use
         transform="translate(132,0)"
         id="use3404"
         x="0"
         y="0"
         width="1000"
         height="1000"
         xlink:href="#rect3328" />
      <use
         transform="translate(138,0)"
         id="use3406"
         x="0"
         y="0"
         width="1000"
         height="1000"
         xlink:href="#rect3328" />
      <use
         transform="translate(144,0)"
         id="use3408"
         x="0"
         y="0"
         width="1000"
         height="1000"
         xlink:href="#rect3328" />
      <use
         transform="translate(150,0)"
         id="use3410"
         x="0"
         y="0"
         width="1000"
         height="1000"
         xlink:href="#rect3328" />
      <use
         transform="translate(156,0)"
         id="use3412"
         x="0"
         y="0"
         width="1000"
         height="1000"
         xlink:href="#rect3328" />
      <use
         transform="translate(162,0)"
         id="use3414"
         x="0"
         y="0"
         width="1000"
         height="1000"
         xlink:href="#rect3328" />
      <use
         transform="translate(168,0)"
         id="use3416"
         x="0"
         y="0"
         width="1000"
         height="1000"
         xlink:href="#rect3328" />
      <use
         transform="translate(174,0)"
         id="use3418"
         x="0"
         y="0"
         width="1000"
         height="1000"
         xlink:href="#rect3328" />
    </g>
    <path
       d="m 430.27693,210.53409 0,175.33471 c 0.58413,0.53761 1.20778,1.02583 1.95073,1.45478 1.30827,0.75534 2.72175,1.21385 4.13292,1.38866 1.41116,0.17482 2.81267,0.065 4.16597,-0.29757 1.3533,-0.36261 2.66759,-0.99456 3.80228,-1.85154 0.31439,-0.23743 0.5038,-0.61944 0.79352,-0.89271 l 0,-175.13633 -14.84542,0 z"
       id="rect3240"
       style="fill:url(#linearGradient4267);fill-opacity:1;fill-rule:evenodd;stroke:#000000;stroke-width:1.05799997;stroke-linecap:butt;stroke-linejoin:miter;stroke-miterlimit:4;stroke-opacity:1;stroke-dasharray:none;stroke-dashoffset:0;marker:none;visibility:visible;display:inline;overflow:visible;enable-background:accumulate" />
    <path
       d="m 526.4432,241.31603 -10.58025,115.58931 -31.74078,11.37378 0,20.10249 c 0.32837,0.0719 0.62819,0.28968 0.95884,0.33063 1.41116,0.17482 2.84574,0.065 4.19904,-0.29757 1.3533,-0.36261 2.63452,-0.99456 3.76921,-1.85154 1.1347,-0.85698 2.12119,-1.93194 2.87651,-3.24021 0.50356,0.87218 1.06152,1.62361 1.71929,2.28137 0.65778,0.65777 1.40919,1.21573 2.28137,1.71929 1.30827,0.75534 2.72175,1.21385 4.13292,1.38866 1.41116,0.17482 2.84574,0.065 4.19904,-0.29757 1.3533,-0.36261 2.63452,-0.99456 3.76921,-1.85154 1.13469,-0.85698 2.12119,-1.93194 2.87651,-3.24021 0.50356,0.87218 1.06152,1.62361 1.71929,2.28137 0.65778,0.65777 1.4092,1.21573 2.28137,1.71929 1.30827,0.75534 2.68869,1.21385 4.09985,1.38866 1.41116,0.17482 2.84574,0.065 4.19904,-0.29757 1.3533,-0.36261 2.63453,-0.99456 3.76922,-1.85154 1.13469,-0.85698 2.12118,-1.93194 2.8765,-3.24021 0.50356,0.87218 1.06152,1.62361 1.7193,2.28137 0.65777,0.65777 1.40919,1.21573 2.28136,1.71929 1.30827,0.75534 2.72175,1.21385 4.13292,1.38866 1.41116,0.17482 2.81267,0.065 4.16597,-0.29757 1.3533,-0.36261 2.66759,-0.99456 3.80228,-1.85154 1.13469,-0.85698 2.12119,-1.93194 2.87651,-3.24021 0.50356,0.87218 1.06152,1.62361 1.71929,2.28137 0.65778,0.65777 1.4092,1.21573 2.28137,1.71929 1.30827,0.75534 2.68869,1.21385 4.09985,1.38866 1.41117,0.17482 2.84574,0.065 4.19904,-0.29757 1.3533,-0.36261 2.63453,-0.99456 3.76922,-1.85154 1.13469,-0.85698 2.12117,-1.93194 2.87651,-3.24021 0.50355,0.87218 1.06151,1.62361 1.71929,2.28137 0.65777,0.65777 1.40919,1.21573 2.28137,1.71929 1.30827,0.75534 2.72175,1.21385 4.13291,1.38866 1.25436,0.1554 2.48739,0.007 3.70309,-0.2645 l 0,-20.16862 -31.74077,-11.37378 -10.58026,-115.58931 -14.84543,0 z"
       id="rect3246"
       style="fill:url(#linearGradient4264);fill-opacity:1;fill-rule:evenodd;stroke:#000000;stroke-width:1.05802584;stroke-linecap:butt;stroke-linejoin:miter;stroke-miterlimit:4;stroke-opacity:1;stroke-dashoffset:0;marker:none;visibility:visible;display:inline;overflow:visible;enable-background:accumulate" />
    <path
       d="m 466.14834,382.80868 c -3.02132,5.23308 -9.72055,7.02814 -14.95363,4.00682 -1.74436,-1.00711 -2.9997,-2.26246 -4.00682,-4.00682 -3.02132,5.23308 -9.72054,7.02814 -14.95362,4.00682 -1.74437,-1.00711 -2.99971,-2.26246 -4.00682,-4.00682 -3.02131,5.23308 -9.72054,7.02814 -14.95362,4.00682 -1.74438,-1.00711 -2.9997,-2.26246 -4.00682,-4.00682"
       id="path3217"
       style="fill:none;stroke:#0000ff;stroke-width:2.11605167;stroke-linecap:butt;stroke-linejoin:miter;stroke-miterlimit:4;stroke-opacity:1;stroke-dashoffset:0;marker:none;visibility:visible;display:inline;overflow:visible;enable-background:accumulate" />
    <path
       d="m 590.73299,382.80868 c -3.02132,5.23308 -9.72055,7.02814 -14.95363,4.00682 -1.74437,-1.00711 -2.99971,-2.26246 -4.00682,-4.00682 -3.02132,5.23308 -9.72055,7.02814 -14.95363,4.00682 -1.74436,-1.00711 -2.9997,-2.26246 -4.00681,-4.00682 -3.02132,5.23308 -9.72055,7.02814 -14.95363,4.00682 -1.74437,-1.00711 -2.99971,-2.26246 -4.00682,-4.00682 -3.02132,5.23308 -9.72055,7.02814 -14.95363,4.00682 -1.74437,-1.00711 -2.9997,-2.26246 -4.00682,-4.00682 -3.02132,5.23308 -9.72055,7.02814 -14.95363,4.00682 -1.74436,-1.00711 -2.9997,-2.26246 -4.00681,-4.00682 -3.02131,5.23308 -9.72054,7.02814 -14.95362,4.00682 -1.74438,-1.00711 -2.99971,-2.26246 -4.00682,-4.00682"
       id="path3207"
       style="fill:none;stroke:#0000ff;stroke-width:2.11605167;stroke-linecap:butt;stroke-linejoin:miter;stroke-miterlimit:4;stroke-opacity:1;stroke-dashoffset:0;marker:none;visibility:visible;display:inline;overflow:visible;enable-background:accumulate" />
    <path
       d="m 763.9165,317.88818 -2.21484,-1.8457 1.33984,-1.70898 2.69336,2.20117 c 0.62889,-0.68359 1.10741,-1.55859 1.43555,-2.625 0.32811,-1.0664 0.49217,-2.26952 0.49219,-3.60938 -2e-5,-2.58853 -0.59019,-4.6074 -1.77051,-6.05664 -1.18035,-1.4492 -2.8187,-2.17381 -4.91504,-2.17383 -2.10548,2e-5 -3.75294,0.72463 -4.94238,2.17383 -1.18946,1.44924 -1.78419,3.46811 -1.78418,6.05664 -10e-6,2.57944 0.59472,4.59604 1.78418,6.04981 1.18944,1.45378 2.8369,2.18066 4.94238,2.18066 0.55598,0 1.07551,-0.0524 1.55859,-0.15722 0.48306,-0.10482 0.94335,-0.2666 1.38086,-0.48536 l 0,0 z m 2.20118,1.73633 c -0.78387,0.42839 -1.59963,0.74968 -2.44727,0.96387 -0.84767,0.21419 -1.74545,0.32129 -2.69336,0.32129 -2.98959,0 -5.32976,-0.93653 -7.02051,-2.80957 -1.69075,-1.87305 -2.53613,-4.47298 -2.53613,-7.79981 0,-3.32681 0.84538,-5.92674 2.53613,-7.7998 1.69075,-1.87303 4.03092,-2.80955 7.02051,-2.80957 2.96223,2e-5 5.28872,0.9411 6.97949,2.82324 1.69074,1.88218 2.53612,4.47755 2.53614,7.78613 -2e-5,1.63152 -0.21422,3.09669 -0.64258,4.39551 -0.42841,1.29883 -1.08466,2.47233 -1.96875,3.52051 l 2.41992,2.02344 -1.35352,1.70898 -2.83007,-2.32422 z m 12.98828,6.52149 c -1.5586,-2.08725 -2.70932,-4.19727 -3.45215,-6.33008 -0.74284,-2.13281 -1.11426,-4.37044 -1.11426,-6.71289 0,-2.35156 0.37142,-4.59374 1.11426,-6.72657 0.74283,-2.13279 1.89355,-4.24282 3.45215,-6.33007 l 1.76367,0 c -1.29428,2.20574 -2.25815,4.38413 -2.8916,6.53515 -0.63347,2.15106 -0.9502,4.32488 -0.9502,6.52149 0,2.1875 0.31673,4.35677 0.9502,6.50781 0.63345,2.15104 1.59732,4.32942 2.8916,6.53516 l -1.76367,0 z m 2.73437,-11.89454 2.54297,0 c 0.0365,1.37631 0.41471,2.43816 1.13477,3.18555 0.72004,0.7474 1.73632,1.1211 3.04882,1.1211 1.27604,0 2.28092,-0.3418 3.01465,-1.0254 0.73372,-0.68359 1.10058,-1.62239 1.10059,-2.8164 -10e-6,-1.09374 -0.36004,-1.9414 -1.08008,-2.54297 -0.72006,-0.60155 -1.73178,-0.90233 -3.03516,-0.90234 -0.26433,10e-6 -0.70183,0.0182 -1.3125,0.0547 l -0.0957,0.0137 0.0137,-2.21485 c 0.11849,0.009 0.23925,0.016 0.36231,0.0205 0.12304,0.005 0.28026,0.007 0.47168,0.007 1.40364,1e-5 2.41535,-0.23925 3.03515,-0.71778 0.61979,-0.4785 0.92968,-1.2464 0.92969,-2.30371 -10e-6,-0.98436 -0.29623,-1.74087 -0.88867,-2.26953 -0.59246,-0.52863 -1.44011,-0.79295 -2.54297,-0.79297 -1.23959,2e-5 -2.17611,0.34865 -2.80957,1.0459 -0.63347,0.69728 -0.9502,1.72951 -0.95019,3.09668 l -2.48829,0 0,-0.13672 c 0,-1.92316 0.55143,-3.45441 1.6543,-4.59375 1.10286,-1.1393 2.58398,-1.70896 4.44336,-1.70898 1.98697,2e-5 3.52961,0.4603 4.62793,1.38086 1.09829,0.92059 1.64745,2.20574 1.64746,3.85546 -10e-6,0.94793 -0.20509,1.7523 -0.61523,2.41309 -0.41017,0.66082 -1.01629,1.1644 -1.81836,1.51074 1.03905,0.38282 1.82518,0.97755 2.3584,1.78418 0.53318,0.80665 0.79979,1.80698 0.7998,3.00098 -10e-6,1.87761 -0.63348,3.37923 -1.90039,4.50488 -1.26694,1.12565 -2.96681,1.68848 -5.09961,1.68848 -1.9961,0 -3.58659,-0.59017 -4.77148,-1.77051 -1.1849,-1.18034 -1.77735,-2.76399 -1.77735,-4.75098 l 0,-0.13672 -3e-5,-1.9e-4 z m 16.83008,11.89454 -1.76367,0 c 1.28515,-2.20574 2.24446,-4.38412 2.87793,-6.53516 0.63346,-2.15104 0.95019,-4.32031 0.95019,-6.50781 0,-2.19661 -0.31673,-4.37043 -0.95019,-6.52149 -0.63347,-2.15102 -1.59278,-4.32941 -2.87793,-6.53515 l 1.76367,0 c 1.54036,2.07814 2.67968,4.18133 3.41797,6.30957 0.73827,2.12826 1.10741,4.37729 1.10742,6.74707 -10e-6,2.36068 -0.36915,4.60514 -1.10742,6.7334 -0.73829,2.12825 -1.87761,4.23144 -3.41797,6.30957 l 0,0 z m -42.24609,21.28382 -7.16407,-20.13867 2.83008,0 5.79688,16.85742 5.61914,-16.85742 2.85742,0 -7.08203,20.13867 -2.85742,0 z m 23.73437,-2.46094 -2.21484,-1.8457 1.33984,-1.70899 2.69336,2.20118 c 0.62889,-0.68359 1.10741,-1.55859 1.43555,-2.625 0.32811,-1.0664 0.49217,-2.26953 0.49219,-3.60938 -2e-5,-2.58853 -0.59019,-4.60741 -1.77051,-6.05664 -1.18036,-1.4492 -2.8187,-2.17381 -4.91504,-2.17383 -2.10548,2e-5 -3.75294,0.72463 -4.94238,2.17383 -1.18946,1.44923 -1.78419,3.46811 -1.78418,6.05664 -10e-6,2.57944 0.59472,4.59604 1.78418,6.04981 1.18944,1.45377 2.8369,2.18066 4.94238,2.18066 0.55598,0 1.07551,-0.0524 1.55859,-0.15723 0.48306,-0.10481 0.94335,-0.2666 1.38086,-0.48535 l 0,0 z m 2.20117,1.73633 c -0.78387,0.42839 -1.59962,0.74967 -2.44726,0.96387 -0.84767,0.21419 -1.74546,0.32129 -2.69336,0.32129 -2.98959,0 -5.32976,-0.93653 -7.02051,-2.80957 -1.69076,-1.87305 -2.53613,-4.47298 -2.53613,-7.79981 0,-3.32681 0.84537,-5.92674 2.53613,-7.7998 1.69075,-1.87303 4.03092,-2.80955 7.02051,-2.80957 2.96222,2e-5 5.28872,0.9411 6.97949,2.82324 1.69074,1.88218 2.53611,4.47755 2.53613,7.78613 -2e-5,1.63152 -0.21421,3.09669 -0.64257,4.39551 -0.42841,1.29883 -1.08466,2.47233 -1.96875,3.52051 l 2.41992,2.02343 -1.35352,1.70899 -2.83008,-2.32422 z m 12.98828,6.52148 c -1.55859,-2.08724 -2.70931,-4.19726 -3.45214,-6.33007 -0.74285,-2.13281 -1.11426,-4.37044 -1.11426,-6.71289 0,-2.35156 0.37141,-4.59374 1.11426,-6.72657 0.74283,-2.13279 1.89355,-4.24282 3.45214,-6.33008 l 1.76368,0 c -1.29428,2.20575 -2.25815,4.38414 -2.89161,6.53516 -0.63346,2.15105 -0.9502,4.32488 -0.95019,6.52149 -1e-5,2.1875 0.31673,4.35677 0.95019,6.50781 0.63346,2.15104 1.59733,4.32942 2.89161,6.53515 l -1.76368,0 z m 2.73438,-11.89453 2.54297,0 c 0.0364,1.37631 0.41471,2.43816 1.13476,3.18555 0.72005,0.7474 1.73633,1.1211 3.04883,1.12109 1.27604,10e-6 2.28092,-0.34179 3.01465,-1.02539 0.73371,-0.68359 1.10057,-1.62239 1.10059,-2.8164 -2e-5,-1.09375 -0.36004,-1.9414 -1.08008,-2.54297 -0.72006,-0.60156 -1.73178,-0.90234 -3.03516,-0.90235 -0.26433,10e-6 -0.70183,0.0182 -1.3125,0.0547 l -0.0957,0.0137 0.0137,-2.21484 c 0.11848,0.009 0.23925,0.016 0.36231,0.0205 0.12304,0.005 0.28026,0.007 0.47168,0.007 1.40363,10e-6 2.41535,-0.23924 3.03515,-0.71777 0.61978,-0.4785 0.92968,-1.24641 0.92969,-2.30371 -10e-6,-0.98436 -0.29624,-1.74087 -0.88867,-2.26953 -0.59246,-0.52863 -1.44012,-0.79295 -2.54297,-0.79297 -1.23959,2e-5 -2.17611,0.34865 -2.80957,1.0459 -0.63347,0.69728 -0.9502,1.7295 -0.9502,3.09668 l -2.48828,0 0,-0.13672 c 0,-1.92316 0.55143,-3.45441 1.6543,-4.59375 1.10286,-1.13931 2.58398,-1.70897 4.44336,-1.70899 1.98697,2e-5 3.52961,0.46031 4.62793,1.38086 1.09829,0.92059 1.64744,2.20575 1.64746,3.85547 -2e-5,0.94793 -0.20509,1.75229 -0.61524,2.41309 -0.41016,0.66082 -1.01628,1.1644 -1.81836,1.51074 1.03905,0.38282 1.82519,0.97755 2.3584,1.78418 0.53319,0.80665 0.79979,1.80697 0.79981,3.00098 -2e-5,1.8776 -0.63348,3.37923 -1.90039,4.50488 -1.26694,1.12565 -2.96681,1.68848 -5.09961,1.68848 -1.9961,0 -3.58659,-0.59017 -4.77149,-1.77051 -1.18489,-1.18034 -1.77734,-2.764 -1.77734,-4.75098 l 0,-0.13672 -3e-5,-2e-4 z m 16.83008,11.89453 -1.76367,0 c 1.28515,-2.20573 2.24446,-4.38411 2.87793,-6.53515 0.63346,-2.15104 0.95019,-4.32031 0.95019,-6.50781 0,-2.19661 -0.31673,-4.37044 -0.95019,-6.52149 -0.63347,-2.15102 -1.59278,-4.32941 -2.87793,-6.53516 l 1.76367,0 c 1.54036,2.07815 2.67968,4.18134 3.41797,6.30958 0.73827,2.12826 1.10741,4.37728 1.10742,6.74707 -10e-6,2.36068 -0.36915,4.60514 -1.10742,6.73339 -0.73829,2.12826 -1.87761,4.23145 -3.41797,6.30957 l 0,0 z"
       id="text3456"
       style="font-size:28px;font-style:normal;font-variant:normal;font-weight:normal;font-stretch:normal;text-align:center;line-height:96.71677947%;writing-mode:lr-tb;text-anchor:middle;fill:#000000;fill-opacity:1;stroke:none;font-family:Swis721 BT;-inkscape-font-specification:Swis721 BT"
       sodipodi:nodetypes="ccccssssssssscccssssssssscccccsssccsssccccsssssscccssssssscccssssscssssscccccsssccsssccccccccccccccssssssssscccssssssssscccccsssccsssccccsssssscccssssssscccssssscssssscccccsssccssscc" />
    <rect
       width="180"
       height="25"
       x="736.22052"
       y="651.8183"
       id="rect3474"
       style="fill:#000000;fill-opacity:1;fill-rule:evenodd;stroke:#000000;stroke-width:1;stroke-linecap:butt;stroke-linejoin:miter;stroke-miterlimit:4;stroke-opacity:1;stroke-dasharray:none;stroke-dashoffset:0;marker:none;visibility:visible;display:inline;overflow:visible;enable-background:accumulate" />
    <rect
       width="3"
       height="25"
       x="736.22052"
       y="651.8183"
       id="rect3476"
       style="fill:#ffffff;fill-opacity:1;fill-rule:evenodd;stroke:none;stroke-width:1;marker:none;visibility:visible;display:inline;overflow:visible;enable-background:accumulate" />
    <use
       transform="translate(167.90221,490.5388)"
       id="use3478"
       x="0"
       y="0"
       width="1000"
       height="1000"
       xlink:href="#rect3328" />
    <use
       transform="translate(173.90221,490.5388)"
       id="use3480"
       x="0"
       y="0"
       width="1000"
       height="1000"
       xlink:href="#rect3328" />
    <use
       transform="translate(221.90221,490.5388)"
       id="use3496"
       x="0"
       y="0"
       width="1000"
       height="1000"
       xlink:href="#rect3328" />
    <use
       transform="translate(227.90221,490.5388)"
       id="use3498"
       x="0"
       y="0"
       width="1000"
       height="1000"
       xlink:href="#rect3328" />
    <use
       transform="translate(233.90221,490.5388)"
       id="use3500"
       x="0"
       y="0"
       width="1000"
       height="1000"
       xlink:href="#rect3328" />
    <use
       transform="translate(281.90221,490.5388)"
       id="use3516"
       x="0"
       y="0"
       width="1000"
       height="1000"
       xlink:href="#rect3328" />
    <use
       transform="translate(287.90221,490.5388)"
       id="use3518"
       x="0"
       y="0"
       width="1000"
       height="1000"
       xlink:href="#rect3328" />
    <use
       transform="translate(293.90221,490.5388)"
       id="use3520"
       x="0"
       y="0"
       width="1000"
       height="1000"
       xlink:href="#rect3328" />
    <path
       d="m 693.51505,410.59589 -38.09912,0 19.04956,28.22158 19.04956,-28.22158 z"
       id="path3462"
       style="fill:#000000;fill-opacity:1;fill-rule:evenodd;stroke:none;stroke-width:1;marker:none;visibility:visible;display:inline;overflow:visible;enable-background:accumulate" />
    <path
       d="m 693.51505,402.12288 -38.09912,0 19.04956,-28.22158 19.04956,28.22158 z"
       id="path3464"
       style="fill:#000000;fill-opacity:1;fill-rule:evenodd;stroke:none;stroke-width:1;marker:none;visibility:visible;display:inline;overflow:visible;enable-background:accumulate" />
    <path
       d="m 789.65911,441.3932 -38.09913,0 19.04957,28.22158 19.04956,-28.22158 z"
       id="path3466"
       style="fill:#000000;fill-opacity:1;fill-rule:evenodd;stroke:none;stroke-width:1;marker:none;visibility:visible;display:inline;overflow:visible;enable-background:accumulate" />
    <path
       d="m 789.65911,432.92019 -38.09913,0 19.04957,-28.22157 19.04956,28.22157 z"
       id="path3468"
       style="fill:#000000;fill-opacity:1;fill-rule:evenodd;stroke:none;stroke-width:1;marker:none;visibility:visible;display:inline;overflow:visible;enable-background:accumulate" />
    <rect
       width="4.3199978"
       height="54.92569"
       x="672.30548"
       y="395.83722"
       id="rect3470"
       style="fill:#000000;fill-opacity:1;fill-rule:evenodd;stroke:none;stroke-width:1;marker:none;visibility:visible;display:inline;overflow:visible;enable-background:accumulate" />
    <rect
       width="4.3199978"
       height="54.92569"
       x="768.44958"
       y="426.61914"
       id="rect3472"
       style="fill:#000000;fill-opacity:1;fill-rule:evenodd;stroke:none;stroke-width:1;marker:none;visibility:visible;display:inline;overflow:visible;enable-background:accumulate" />
    <path
       d="m 667.03485,447.29189 0,175.33471 c 0.58413,0.53761 1.20778,1.02583 1.95073,1.45478 1.30827,0.75534 2.72175,1.21385 4.13292,1.38866 1.41116,0.17482 2.81267,0.065 4.16597,-0.29757 1.3533,-0.36261 2.66759,-0.99456 3.80228,-1.85154 0.31439,-0.23743 0.5038,-0.61944 0.79352,-0.89271 l 0,-175.13633 -14.84542,0 z"
       id="path3536"
       style="fill:url(#linearGradient4365);fill-opacity:1;fill-rule:evenodd;stroke:#000000;stroke-width:1.05799997;stroke-linecap:butt;stroke-linejoin:miter;stroke-miterlimit:4;stroke-opacity:1;stroke-dasharray:none;stroke-dashoffset:0;marker:none;visibility:visible;display:inline;overflow:visible;enable-background:accumulate" />
    <path
       d="m 763.20112,478.07383 -10.58025,115.58931 -31.74078,11.37378 0,20.10249 c 0.32837,0.0719 0.62819,0.28968 0.95884,0.33063 1.41116,0.17482 2.84574,0.065 4.19904,-0.29757 1.3533,-0.36261 2.63452,-0.99456 3.76921,-1.85154 1.1347,-0.85698 2.12119,-1.93194 2.87651,-3.24021 0.50356,0.87218 1.06152,1.62361 1.71929,2.28137 0.65778,0.65777 1.40919,1.21573 2.28137,1.71929 1.30827,0.75534 2.72175,1.21385 4.13292,1.38866 1.41116,0.17482 2.84574,0.065 4.19904,-0.29757 1.3533,-0.36261 2.63452,-0.99456 3.76921,-1.85154 1.13469,-0.85698 2.12119,-1.93194 2.87651,-3.24021 0.50356,0.87218 1.06152,1.62361 1.71929,2.28137 0.65778,0.65777 1.4092,1.21573 2.28137,1.71929 1.30827,0.75534 2.68869,1.21385 4.09985,1.38866 1.41116,0.17482 2.84574,0.065 4.19904,-0.29757 1.3533,-0.36261 2.63453,-0.99456 3.76922,-1.85154 1.13469,-0.85698 2.12118,-1.93194 2.8765,-3.24021 0.50356,0.87218 1.06152,1.62361 1.7193,2.28137 0.65777,0.65777 1.40919,1.21573 2.28136,1.71929 1.30827,0.75534 2.72175,1.21385 4.13292,1.38866 1.41116,0.17482 2.81267,0.065 4.16597,-0.29757 1.3533,-0.36261 2.66759,-0.99456 3.80228,-1.85154 1.13469,-0.85698 2.12119,-1.93194 2.87651,-3.24021 0.50356,0.87218 1.06152,1.62361 1.71929,2.28137 0.65778,0.65777 1.4092,1.21573 2.28137,1.71929 1.30827,0.75534 2.68869,1.21385 4.09985,1.38866 1.41117,0.17482 2.84574,0.065 4.19904,-0.29757 1.3533,-0.36261 2.63453,-0.99456 3.76922,-1.85154 1.13469,-0.85698 2.12117,-1.93194 2.87651,-3.24021 0.50355,0.87218 1.06151,1.62361 1.71929,2.28137 0.65777,0.65777 1.40919,1.21573 2.28137,1.71929 1.30827,0.75534 2.72175,1.21385 4.13291,1.38866 1.25436,0.1554 2.48739,0.007 3.70309,-0.2645 l 0,-20.16862 -31.74077,-11.37378 -10.58026,-115.58931 -14.84543,0 z"
       id="path3538"
       style="fill:url(#linearGradient4362);fill-opacity:1;fill-rule:evenodd;stroke:#000000;stroke-width:1.05802584;stroke-linecap:butt;stroke-linejoin:miter;stroke-miterlimit:4;stroke-opacity:1;stroke-dashoffset:0;marker:none;visibility:visible;display:inline;overflow:visible;enable-background:accumulate" />
    <path
       d="m 702.90626,619.56648 c -3.02132,5.23308 -9.72055,7.02814 -14.95363,4.00682 -1.74436,-1.00711 -2.9997,-2.26246 -4.00682,-4.00682 -3.02132,5.23308 -9.72054,7.02814 -14.95362,4.00682 -1.74437,-1.00711 -2.99971,-2.26246 -4.00682,-4.00682 -3.02131,5.23308 -9.72054,7.02814 -14.95362,4.00682 -1.74438,-1.00711 -2.9997,-2.26246 -4.00682,-4.00682"
       id="path3540"
       style="fill:none;stroke:#0000ff;stroke-width:2.11605167;stroke-linecap:butt;stroke-linejoin:miter;stroke-miterlimit:4;stroke-opacity:1;stroke-dashoffset:0;marker:none;visibility:visible;display:inline;overflow:visible;enable-background:accumulate" />
    <path
       d="m 827.49091,619.56648 c -3.02132,5.23308 -9.72055,7.02814 -14.95363,4.00682 -1.74437,-1.00711 -2.99971,-2.26246 -4.00682,-4.00682 -3.02132,5.23308 -9.72055,7.02814 -14.95363,4.00682 -1.74436,-1.00711 -2.9997,-2.26246 -4.00681,-4.00682 -3.02132,5.23308 -9.72055,7.02814 -14.95363,4.00682 -1.74437,-1.00711 -2.99971,-2.26246 -4.00682,-4.00682 -3.02132,5.23308 -9.72055,7.02814 -14.95363,4.00682 -1.74437,-1.00711 -2.9997,-2.26246 -4.00682,-4.00682 -3.02132,5.23308 -9.72055,7.02814 -14.95363,4.00682 -1.74436,-1.00711 -2.9997,-2.26246 -4.00681,-4.00682 -3.02131,5.23308 -9.72054,7.02814 -14.95362,4.00682 -1.74438,-1.00711 -2.99971,-2.26246 -4.00682,-4.00682"
       id="path3542"
       style="fill:none;stroke:#0000ff;stroke-width:2.11605167;stroke-linecap:butt;stroke-linejoin:miter;stroke-miterlimit:4;stroke-opacity:1;stroke-dashoffset:0;marker:none;visibility:visible;display:inline;overflow:visible;enable-background:accumulate" />
    <path
       d="m 583.68203,489.53973 a 60.669456,60.669456 0 1 1 -121.33891,0 60.669456,60.669456 0 1 1 121.33891,0 z"
       transform="matrix(-7.7168736,0,0,-7.7168736,4536.0219,4277.7162)"
       id="path3159"
       style="fill:none;stroke:#000000;stroke-width:1.2958616;stroke-linecap:butt;stroke-linejoin:bevel;stroke-miterlimit:4;stroke-opacity:1;stroke-dasharray:none;stroke-dashoffset:0;marker:none;visibility:visible;display:inline;overflow:visible;enable-background:accumulate" />
    <path
       d="m 278.53796,788.09875 -2.21484,-1.8457 1.33984,-1.70898 2.69336,2.20117 c 0.62889,-0.68359 1.10741,-1.55859 1.43555,-2.625 0.32811,-1.0664 0.49217,-2.26952 0.49219,-3.60938 -2e-5,-2.58852 -0.59019,-4.6074 -1.77051,-6.05664 -1.18035,-1.4492 -2.8187,-2.17381 -4.91504,-2.17382 -2.10548,10e-6 -3.75294,0.72462 -4.94238,2.17382 -1.18946,1.44924 -1.78419,3.46812 -1.78418,6.05664 -1e-5,2.57944 0.59472,4.59604 1.78418,6.04981 1.18944,1.45378 2.8369,2.18066 4.94238,2.18066 0.55598,0 1.07551,-0.0524 1.55859,-0.15722 0.48306,-0.10482 0.94335,-0.2666 1.38086,-0.48536 l 0,0 z m 2.20118,1.73633 c -0.78387,0.42839 -1.59963,0.74968 -2.44727,0.96387 -0.84767,0.21419 -1.74545,0.32129 -2.69336,0.32129 -2.98959,0 -5.32976,-0.93652 -7.02051,-2.80957 -1.69075,-1.87304 -2.53613,-4.47298 -2.53613,-7.79981 0,-3.32681 0.84538,-5.92674 2.53613,-7.7998 1.69075,-1.87303 4.03092,-2.80955 7.02051,-2.80957 2.96223,2e-5 5.28872,0.9411 6.97949,2.82324 1.69074,1.88218 2.53612,4.47755 2.53614,7.78613 -2e-5,1.63152 -0.21422,3.09669 -0.64258,4.39551 -0.42841,1.29883 -1.08466,2.47234 -1.96875,3.52051 l 2.41992,2.02344 -1.35352,1.70898 -2.83007,-2.32422 z m 12.98828,6.52149 c -1.5586,-2.08725 -2.70932,-4.19727 -3.45215,-6.33008 -0.74284,-2.13281 -1.11426,-4.37044 -1.11426,-6.71289 0,-2.35155 0.37142,-4.59374 1.11426,-6.72656 0.74283,-2.1328 1.89355,-4.24282 3.45215,-6.33008 l 1.76367,0 c -1.29428,2.20575 -2.25815,4.38413 -2.8916,6.53515 -0.63347,2.15106 -0.9502,4.32488 -0.9502,6.52149 0,2.1875 0.31673,4.35677 0.9502,6.50781 0.63345,2.15104 1.59732,4.32942 2.8916,6.53516 l -1.76367,0 z m 13.93164,-11.73047 c -1e-5,-1.26692 -0.34865,-2.27864 -1.0459,-3.03516 -0.69728,-0.7565 -1.61557,-1.13475 -2.75488,-1.13476 -1.27605,10e-6 -2.27638,0.3737 -3.00098,1.12109 -0.72461,0.7474 -1.08692,1.77279 -1.08691,3.07617 -1e-5,1.30339 0.3623,2.3379 1.08691,3.10352 0.7246,0.76563 1.69758,1.14844 2.91895,1.14844 1.16665,0 2.10545,-0.39193 2.8164,-1.17579 0.71093,-0.78385 1.0664,-1.81835 1.06641,-3.10351 l 0,0 z m 2.55664,-8.25781 -2.58399,0 c -0.0911,-1.02082 -0.43295,-1.79556 -1.02539,-2.32422 -0.59245,-0.52863 -1.41732,-0.79295 -2.47461,-0.79297 -1.42188,2e-5 -2.51107,0.58335 -3.26757,1.75 -0.75652,1.16668 -1.19858,2.93491 -1.32618,5.30469 0.55599,-0.70182 1.22363,-1.23502 2.00293,-1.59961 0.77929,-0.36457 1.65201,-0.54687 2.61817,-0.54688 1.85936,10e-6 3.36099,0.59018 4.50488,1.77051 1.14387,1.18035 1.71581,2.73666 1.71582,4.66894 -10e-6,1.94142 -0.60841,3.51368 -1.82519,4.7168 -1.21681,1.20313 -2.80958,1.80469 -4.77832,1.80469 -2.26954,0 -4.00815,-0.79069 -5.21583,-2.37207 -1.20768,-1.58138 -1.81152,-3.85319 -1.81152,-6.81543 0,-3.49087 0.64258,-6.18879 1.92774,-8.09375 1.28515,-1.90493 3.09439,-2.8574 5.42773,-2.85742 1.84114,2e-5 3.29035,0.46714 4.34766,1.40136 1.05727,0.93427 1.64516,2.26272 1.76367,3.98536 l 0,0 z m 3.07617,19.98828 -1.76367,0 c 1.28515,-2.20574 2.24446,-4.38412 2.87793,-6.53516 0.63346,-2.15104 0.95019,-4.32031 0.95019,-6.50781 0,-2.19661 -0.31673,-4.37043 -0.95019,-6.52149 -0.63347,-2.15102 -1.59278,-4.3294 -2.87793,-6.53515 l 1.76367,0 c 1.54036,2.07814 2.67968,4.18133 3.41797,6.30957 0.73827,2.12827 1.10741,4.37729 1.10742,6.74707 -10e-6,2.36068 -0.36915,4.60514 -1.10742,6.7334 -0.73829,2.12825 -1.87761,4.23144 -3.41797,6.30957 l 0,0 z m 19.93359,-22.49024 0,7.39649 7.21875,0 0,1.90039 -7.21875,0 0,7.39648 -1.9414,0 0,-7.39648 -7.21875,0 0,-1.90039 7.21875,0 0,-7.39649 1.9414,0 z m 12.87891,16.69336 0,-20.13867 2.76172,0 0,17.5957 10.03516,0 0,2.54297 -12.79688,0 z m 14.98438,0 0,-20.13867 13.52148,0 0,2.5293 -10.78711,0 0,6.04297 9.41992,0 0,2.46093 -9.41992,0 0,9.10547 -2.73437,0 z m 16.09179,0 0,-20.13867 2.50196,0 0,20.13867 -2.50196,0 z m -113.81836,27.0807 -7.16406,-20.13867 2.83008,0 5.79687,16.85742 5.61914,-16.85742 2.85743,0 -7.08204,20.13867 -2.85742,0 z m 23.73438,-2.46094 -2.21485,-1.8457 1.33985,-1.70898 2.69336,2.20117 c 0.62889,-0.68359 1.1074,-1.55859 1.43554,-2.625 0.32811,-1.0664 0.49217,-2.26953 0.49219,-3.60938 -2e-5,-2.58853 -0.59018,-4.6074 -1.77051,-6.05664 -1.18035,-1.4492 -2.81869,-2.17381 -4.91504,-2.17383 -2.10547,2e-5 -3.75293,0.72463 -4.94238,2.17383 -1.18946,1.44924 -1.78418,3.46811 -1.78418,6.05664 0,2.57944 0.59472,4.59604 1.78418,6.04981 1.18945,1.45378 2.83691,2.18066 4.94238,2.18066 0.55598,0 1.07551,-0.0524 1.5586,-0.15723 0.48306,-0.10481 0.94334,-0.26659 1.38086,-0.48535 l 0,0 z m 2.20117,1.73633 c -0.78387,0.42839 -1.59962,0.74968 -2.44727,0.96387 -0.84767,0.21419 -1.74545,0.32129 -2.69336,0.32129 -2.98959,0 -5.32975,-0.93653 -7.0205,-2.80957 -1.69076,-1.87305 -2.53614,-4.47298 -2.53614,-7.79981 0,-3.32681 0.84538,-5.92674 2.53614,-7.7998 1.69075,-1.87303 4.03091,-2.80955 7.0205,-2.80957 2.96223,2e-5 5.28873,0.9411 6.9795,2.82324 1.69073,1.88218 2.53611,4.47755 2.53613,7.78613 -2e-5,1.63152 -0.21421,3.09669 -0.64258,4.39551 -0.4284,1.29883 -1.08465,2.47233 -1.96875,3.52051 l 2.41992,2.02344 -1.35351,1.70898 -2.83008,-2.32422 z m 12.98828,6.52149 c -1.5586,-2.08725 -2.70931,-4.19727 -3.45215,-6.33008 -0.74284,-2.13281 -1.11426,-4.37044 -1.11426,-6.71289 0,-2.35156 0.37142,-4.59374 1.11426,-6.72657 0.74284,-2.13279 1.89355,-4.24282 3.45215,-6.33007 l 1.76367,0 c -1.29428,2.20574 -2.25814,4.38413 -2.8916,6.53515 -0.63347,2.15106 -0.9502,4.32488 -0.95019,6.52149 -1e-5,2.1875 0.31672,4.35677 0.95019,6.50781 0.63346,2.15104 1.59732,4.32942 2.8916,6.53516 l -1.76367,0 z m 13.93164,-11.73047 c -10e-6,-1.26692 -0.34864,-2.27864 -1.0459,-3.03516 -0.69727,-0.7565 -1.61557,-1.13475 -2.75488,-1.13476 -1.27605,10e-6 -2.27637,0.3737 -3.00098,1.12109 -0.72461,0.7474 -1.08691,1.77279 -1.08691,3.07617 0,1.30339 0.3623,2.33789 1.08691,3.10352 0.72461,0.76562 1.69759,1.14844 2.91895,1.14843 1.16666,10e-6 2.10546,-0.39192 2.81641,-1.17578 0.71092,-0.78385 1.06639,-1.81835 1.0664,-3.10351 l 0,0 z m 2.55664,-8.25782 -2.58398,0 c -0.0912,-1.02081 -0.43296,-1.79555 -1.02539,-2.32421 -0.59246,-0.52863 -1.41733,-0.79296 -2.47461,-0.79297 -1.42188,10e-6 -2.51108,0.58335 -3.26758,1.75 -0.75652,1.16668 -1.19857,2.93491 -1.32617,5.30468 0.55598,-0.70181 1.22363,-1.23501 2.00293,-1.5996 0.77929,-0.36458 1.65201,-0.54687 2.61816,-0.54688 1.85937,10e-6 3.36099,0.59018 4.50488,1.77051 1.14387,1.18035 1.71581,2.73666 1.71582,4.66894 -1e-5,1.94141 -0.60841,3.51368 -1.82519,4.7168 -1.21681,1.20313 -2.80958,1.80469 -4.77832,1.80469 -2.26954,0 -4.00814,-0.79069 -5.21582,-2.37207 -1.20769,-1.58138 -1.81153,-3.85319 -1.81152,-6.81543 -1e-5,-3.49088 0.64257,-6.18879 1.92773,-8.09375 1.28515,-1.90493 3.09439,-2.8574 5.42773,-2.85742 1.84114,2e-5 3.29036,0.46714 4.34766,1.40136 1.05728,0.93426 1.64517,2.26271 1.76367,3.98535 l 0,0 z m 3.07617,19.98829 -1.76367,0 c 1.28516,-2.20574 2.24447,-4.38412 2.87793,-6.53516 0.63346,-2.15104 0.95019,-4.32031 0.9502,-6.50781 -10e-6,-2.19661 -0.31674,-4.37043 -0.9502,-6.52149 -0.63346,-2.15102 -1.59277,-4.32941 -2.87793,-6.53515 l 1.76367,0 c 1.54036,2.07814 2.67969,4.18133 3.41797,6.30957 0.73828,2.12826 1.10742,4.37728 1.10742,6.74707 0,2.36068 -0.36914,4.60514 -1.10742,6.7334 -0.73828,2.12825 -1.87761,4.23144 -3.41797,6.30957 l 0,0 z m 19.9336,-22.49024 0,7.39649 7.21875,0 0,1.90039 -7.21875,0 0,7.39648 -1.94141,0 0,-7.39648 -7.21875,0 0,-1.90039 7.21875,0 0,-7.39649 1.94141,0 z m 12.8789,16.69336 0,-20.13867 2.76172,0 0,17.5957 10.03516,0 0,2.54297 -12.79688,0 z m 14.98438,0 0,-20.13867 13.52148,0 0,2.5293 -10.78711,0 0,6.04296 9.41993,0 0,2.46094 -9.41993,0 0,9.10547 -2.73437,0 z m 16.0918,0 0,-20.13867 2.50195,0 0,20.13867 -2.50195,0 z"
       id="text3785"
       style="font-size:28px;font-style:normal;font-variant:normal;font-weight:normal;font-stretch:normal;text-align:center;line-height:96.71677947%;writing-mode:lr-tb;text-anchor:middle;fill:#000000;fill-opacity:1;stroke:none;font-family:Swis721 BT;-inkscape-font-specification:Swis721 BT"
       sodipodi:nodetypes="ccccssssssssscccssssssssscccccsssccssscccsssssssccccssscsssssssssssccccsssccsssccccccccccccccccccccccccccccccccccccccccccccccccccssssssssscccssssssssscccccsssccssscccsssssssccccssscsssssssssssccccsssccssscccccccccccccccccccccccccccccccccccccc" />
    <rect
       width="180"
       height="25"
       x="574.3183"
       y="-818.72046"
       transform="scale(1,-1)"
       id="rect3803"
       style="fill:#000000;fill-opacity:1;fill-rule:evenodd;stroke:#000000;stroke-width:1;stroke-linecap:butt;stroke-linejoin:miter;stroke-miterlimit:4;stroke-opacity:1;stroke-dasharray:none;stroke-dashoffset:0;marker:none;visibility:visible;display:inline;overflow:visible;enable-background:accumulate" />
    <rect
       width="3"
       height="25"
       x="574.3183"
       y="-818.72046"
       transform="scale(1,-1)"
       id="rect3805"
       style="fill:#ffffff;fill-opacity:1;fill-rule:evenodd;stroke:none;stroke-width:1;marker:none;visibility:visible;display:inline;overflow:visible;enable-background:accumulate" />
    <use
       transform="matrix(1,0,0,-1,6,979.9999)"
       id="use3807"
       x="0"
       y="0"
       width="1000"
       height="1000"
       xlink:href="#rect3328" />
    <use
       transform="matrix(1,0,0,-1,12,979.9999)"
       id="use3809"
       x="0"
       y="0"
       width="1000"
       height="1000"
       xlink:href="#rect3328" />
    <use
       transform="matrix(1,0,0,-1,18,979.9999)"
       id="use3811"
       x="0"
       y="0"
       width="1000"
       height="1000"
       xlink:href="#rect3328" />
    <use
       transform="matrix(1,0,0,-1,24,979.9999)"
       id="use3813"
       x="0"
       y="0"
       width="1000"
       height="1000"
       xlink:href="#rect3328" />
    <use
       transform="matrix(1,0,0,-1,30,979.9999)"
       id="use3815"
       x="0"
       y="0"
       width="1000"
       height="1000"
       xlink:href="#rect3328" />
    <use
       transform="matrix(4,0,0,-1,-1686.9549,979.9999)"
       id="use3817"
       x="0"
       y="0"
       width="1000"
       height="1000"
       xlink:href="#rect3328" />
    <use
       transform="matrix(1,0,0,-1,90,979.9999)"
       id="use3835"
       x="0"
       y="0"
       width="1000"
       height="1000"
       xlink:href="#rect3328" />
    <use
       transform="matrix(1,0,0,-1,96,979.9999)"
       id="use3837"
       x="0"
       y="0"
       width="1000"
       height="1000"
       xlink:href="#rect3328" />
    <use
       transform="matrix(1,0,0,-1,102,979.9999)"
       id="use3839"
       x="0"
       y="0"
       width="1000"
       height="1000"
       xlink:href="#rect3328" />
    <use
       transform="matrix(1,0,0,-1,108,979.9999)"
       id="use3841"
       x="0"
       y="0"
       width="1000"
       height="1000"
       xlink:href="#rect3328" />
    <use
       transform="matrix(1,0,0,-1,114,979.9999)"
       id="use3843"
       x="0"
       y="0"
       width="1000"
       height="1000"
       xlink:href="#rect3328" />
    <use
       transform="matrix(1,0,0,-1,120,979.9999)"
       id="use3845"
       x="0"
       y="0"
       width="1000"
       height="1000"
       xlink:href="#rect3328" />
    <use
       transform="matrix(4,0,0,-1,-1596.9549,979.9999)"
       id="use3847"
       x="0"
       y="0"
       width="1000"
       height="1000"
       xlink:href="#rect3328" />
    <path
       d="m 456.75713,647.35379 -38.09912,0 19.04956,28.22158 19.04956,-28.22158 z"
       id="path3791"
       style="fill:#000000;fill-opacity:1;fill-rule:evenodd;stroke:none;stroke-width:1;marker:none;visibility:visible;display:inline;overflow:visible;enable-background:accumulate" />
    <path
       d="m 456.75713,610.6592 -38.09912,0 19.04956,28.22158 19.04956,-28.22158 z"
       id="path3793"
       style="fill:#000000;fill-opacity:1;fill-rule:evenodd;stroke:none;stroke-width:1;marker:none;visibility:visible;display:inline;overflow:visible;enable-background:accumulate" />
    <path
       d="m 552.90119,678.1511 -38.09913,0 19.04957,28.22158 19.04956,-28.22158 z"
       id="path3795"
       style="fill:#000000;fill-opacity:1;fill-rule:evenodd;stroke:none;stroke-width:1;marker:none;visibility:visible;display:inline;overflow:visible;enable-background:accumulate" />
    <path
       d="m 552.90119,641.45652 -38.09913,0 19.04957,28.22157 19.04956,-28.22157 z"
       id="path3797"
       style="fill:#000000;fill-opacity:1;fill-rule:evenodd;stroke:none;stroke-width:1;marker:none;visibility:visible;display:inline;overflow:visible;enable-background:accumulate" />
    <rect
       width="4.3199978"
       height="54.92569"
       x="435.54758"
       y="632.59509"
       id="rect3799"
       style="fill:#000000;fill-opacity:1;fill-rule:evenodd;stroke:none;stroke-width:1;marker:none;visibility:visible;display:inline;overflow:visible;enable-background:accumulate" />
    <rect
       width="4.3199978"
       height="54.92569"
       x="531.69165"
       y="663.37708"
       id="rect3801"
       style="fill:#000000;fill-opacity:1;fill-rule:evenodd;stroke:none;stroke-width:1;marker:none;visibility:visible;display:inline;overflow:visible;enable-background:accumulate" />
    <path
       d="m 430.27693,684.04979 0,175.33471 c 0.58413,0.53761 1.20778,1.02583 1.95073,1.45478 1.30827,0.75534 2.72175,1.21385 4.13292,1.38866 1.41116,0.17482 2.81267,0.0651 4.16597,-0.29757 1.3533,-0.36261 2.66759,-0.99456 3.80228,-1.85154 0.31439,-0.23743 0.5038,-0.61944 0.79352,-0.89271 l 0,-175.13633 -14.84542,0 z"
       id="path3865"
       style="fill:url(#linearGradient4100);fill-opacity:1;fill-rule:evenodd;stroke:#000000;stroke-width:1.05799997;stroke-linecap:butt;stroke-linejoin:miter;stroke-miterlimit:4;stroke-opacity:1;stroke-dasharray:none;stroke-dashoffset:0;marker:none;visibility:visible;display:inline;overflow:visible;enable-background:accumulate" />
    <path
       d="m 526.4432,714.83173 -10.58025,115.58931 -31.74078,11.37378 0,20.10249 c 0.32837,0.0719 0.62819,0.28968 0.95884,0.33063 1.41116,0.17482 2.84574,0.0651 4.19904,-0.29757 1.3533,-0.36261 2.63452,-0.99456 3.76921,-1.85154 1.1347,-0.85698 2.12119,-1.93194 2.87651,-3.24021 0.50356,0.87218 1.06152,1.62361 1.71929,2.28137 0.65778,0.65777 1.40919,1.21573 2.28137,1.71929 1.30827,0.75534 2.72175,1.21385 4.13292,1.38866 1.41116,0.17482 2.84574,0.0651 4.19904,-0.29757 1.3533,-0.36261 2.63452,-0.99456 3.76921,-1.85154 1.13469,-0.85698 2.12119,-1.93194 2.87651,-3.24021 0.50356,0.87218 1.06152,1.62361 1.71929,2.28137 0.65778,0.65777 1.4092,1.21573 2.28137,1.71929 1.30827,0.75534 2.68869,1.21385 4.09985,1.38866 1.41116,0.17482 2.84574,0.0651 4.19904,-0.29757 1.3533,-0.36261 2.63453,-0.99456 3.76922,-1.85154 1.13469,-0.85698 2.12118,-1.93194 2.8765,-3.24021 0.50356,0.87218 1.06152,1.62361 1.7193,2.28137 0.65777,0.65777 1.40919,1.21573 2.28136,1.71929 1.30827,0.75534 2.72175,1.21385 4.13292,1.38866 1.41116,0.17482 2.81267,0.0651 4.16597,-0.29757 1.3533,-0.36261 2.66759,-0.99456 3.80228,-1.85154 1.13469,-0.85698 2.12119,-1.93194 2.87651,-3.24021 0.50356,0.87218 1.06152,1.62361 1.71929,2.28137 0.65778,0.65777 1.4092,1.21573 2.28137,1.71929 1.30827,0.75534 2.68869,1.21385 4.09985,1.38866 1.41117,0.17482 2.84574,0.0651 4.19904,-0.29757 1.3533,-0.36261 2.63453,-0.99456 3.76922,-1.85154 1.13469,-0.85698 2.12117,-1.93194 2.87651,-3.24021 0.50355,0.87218 1.06151,1.62361 1.71929,2.28137 0.65777,0.65777 1.40919,1.21573 2.28137,1.71929 1.30827,0.75534 2.72175,1.21385 4.13291,1.38866 1.25436,0.1554 2.48739,0.007 3.70309,-0.2645 l 0,-20.16862 -31.74077,-11.37378 -10.58026,-115.58931 -14.84543,0 z"
       id="path3867"
       style="fill:url(#linearGradient4097);fill-opacity:1;fill-rule:evenodd;stroke:#000000;stroke-width:1.05802584;stroke-linecap:butt;stroke-linejoin:miter;stroke-miterlimit:4;stroke-opacity:1;stroke-dashoffset:0;marker:none;visibility:visible;display:inline;overflow:visible;enable-background:accumulate" />
    <path
       d="m 466.14834,856.32438 c -3.02132,5.23308 -9.72055,7.02814 -14.95363,4.00682 -1.74436,-1.00711 -2.9997,-2.26246 -4.00682,-4.00682 -3.02132,5.23308 -9.72054,7.02814 -14.95362,4.00682 -1.74437,-1.00711 -2.99971,-2.26246 -4.00682,-4.00682 -3.02131,5.23308 -9.72054,7.02814 -14.95362,4.00682 -1.74438,-1.00711 -2.9997,-2.26246 -4.00682,-4.00682"
       id="path3869"
       style="fill:none;stroke:#0000ff;stroke-width:2.11605167;stroke-linecap:butt;stroke-linejoin:miter;stroke-miterlimit:4;stroke-opacity:1;stroke-dashoffset:0;marker:none;visibility:visible;display:inline;overflow:visible;enable-background:accumulate" />
    <path
       d="m 590.73299,856.32438 c -3.02132,5.23308 -9.72055,7.02814 -14.95363,4.00682 -1.74437,-1.00711 -2.99971,-2.26246 -4.00682,-4.00682 -3.02132,5.23308 -9.72055,7.02814 -14.95363,4.00682 -1.74436,-1.00711 -2.9997,-2.26246 -4.00681,-4.00682 -3.02132,5.23308 -9.72055,7.02814 -14.95363,4.00682 -1.74437,-1.00711 -2.99971,-2.26246 -4.00682,-4.00682 -3.02132,5.23308 -9.72055,7.02814 -14.95363,4.00682 -1.74437,-1.00711 -2.9997,-2.26246 -4.00682,-4.00682 -3.02132,5.23308 -9.72055,7.02814 -14.95363,4.00682 -1.74436,-1.00711 -2.9997,-2.26246 -4.00681,-4.00682 -3.02131,5.23308 -9.72054,7.02814 -14.95362,4.00682 -1.74438,-1.00711 -2.99971,-2.26246 -4.00682,-4.00682"
       id="path3871"
       style="fill:none;stroke:#0000ff;stroke-width:2.11605167;stroke-linecap:butt;stroke-linejoin:miter;stroke-miterlimit:4;stroke-opacity:1;stroke-dashoffset:0;marker:none;visibility:visible;display:inline;overflow:visible;enable-background:accumulate" />
    <path
       d="m 157.87256,317.88818 -2.21485,-1.8457 1.33985,-1.70898 2.69336,2.20117 c 0.62889,-0.68359 1.1074,-1.55859 1.43554,-2.625 0.32811,-1.0664 0.49217,-2.26952 0.49219,-3.60938 -2e-5,-2.58853 -0.59018,-4.6074 -1.77051,-6.05664 -1.18035,-1.4492 -2.81869,-2.17381 -4.91503,-2.17383 -2.10548,2e-5 -3.75294,0.72463 -4.94239,2.17383 -1.18946,1.44924 -1.78418,3.46811 -1.78418,6.05664 0,2.57944 0.59472,4.59604 1.78418,6.04981 1.18945,1.45378 2.83691,2.18066 4.94239,2.18066 0.55597,0 1.0755,-0.0524 1.55859,-0.15722 0.48306,-0.10482 0.94335,-0.2666 1.38086,-0.48536 l 0,0 z m 2.20117,1.73633 c -0.78387,0.42839 -1.59962,0.74968 -2.44727,0.96387 -0.84766,0.21419 -1.74545,0.32129 -2.69335,0.32129 -2.9896,0 -5.32976,-0.93653 -7.02051,-2.80957 -1.69076,-1.87305 -2.53614,-4.47298 -2.53614,-7.79981 0,-3.32681 0.84538,-5.92674 2.53614,-7.7998 1.69075,-1.87303 4.03091,-2.80955 7.02051,-2.80957 2.96222,2e-5 5.28872,0.9411 6.97949,2.82324 1.69073,1.88218 2.53611,4.47755 2.53613,7.78613 -2e-5,1.63152 -0.21421,3.09669 -0.64258,4.39551 -0.4284,1.29883 -1.08465,2.47233 -1.96875,3.52051 l 2.41992,2.02344 -1.35351,1.70898 -2.83008,-2.32422 z m 12.98828,6.52149 c -1.5586,-2.08725 -2.70931,-4.19727 -3.45215,-6.33008 -0.74284,-2.13281 -1.11426,-4.37044 -1.11425,-6.71289 -1e-5,-2.35156 0.37141,-4.59374 1.11425,-6.72657 0.74284,-2.13279 1.89355,-4.24282 3.45215,-6.33007 l 1.76367,0 c -1.29428,2.20574 -2.25814,4.38413 -2.8916,6.53515 -0.63347,2.15106 -0.9502,4.32488 -0.95019,6.52149 -1e-5,2.1875 0.31672,4.35677 0.95019,6.50781 0.63346,2.15104 1.59732,4.32942 2.8916,6.53516 l -1.76367,0 z m 5.61914,-18.86719 c 0,1.25782 0.34407,2.2627 1.03223,3.01465 0.68814,0.75196 1.60644,1.12794 2.75488,1.12793 1.26692,1e-5 2.26497,-0.37141 2.99414,-1.11426 0.72916,-0.74283 1.09374,-1.76138 1.09375,-3.05567 -1e-5,-1.30337 -0.36003,-2.34015 -1.08008,-3.11035 -0.72006,-0.77016 -1.6862,-1.15525 -2.89843,-1.15527 -1.17579,2e-5 -2.11915,0.39194 -2.83008,1.17578 -0.71094,0.78387 -1.06641,1.82293 -1.06641,3.11719 l 0,0 z m -2.54297,8.25781 2.57032,0 c 0.0273,0.96615 0.3509,1.72494 0.9707,2.27637 0.61979,0.55143 1.46288,0.82715 2.5293,0.82715 1.42186,0 2.51105,-0.58106 3.26757,-1.74317 0.7565,-1.1621 1.19856,-2.93261 1.32618,-5.31152 -0.54689,0.70183 -1.21453,1.23731 -2.00293,1.60644 -0.78842,0.36915 -1.67026,0.55372 -2.64551,0.55372 -1.85027,0 -3.34506,-0.59017 -4.48438,-1.77051 -1.13932,-1.18033 -1.70898,-2.73664 -1.70898,-4.66895 0,-1.9505 0.60384,-3.52732 1.81152,-4.73047 1.20768,-1.2031 2.80045,-1.80466 4.77832,-1.80468 2.26952,2e-5 4.01269,0.78843 5.2295,2.36523 1.21678,1.57684 1.82518,3.85093 1.82519,6.82227 -1e-5,3.51823 -0.64259,6.22298 -1.92773,8.11425 -1.28517,1.89128 -3.1172,2.83692 -5.4961,2.83692 -1.85026,0 -3.31771,-0.48535 -4.40234,-1.45606 -1.08464,-0.9707 -1.63151,-2.27636 -1.64063,-3.91699 l 0,0 z m 16.48828,10.60938 -1.76367,0 c 1.28516,-2.20574 2.24447,-4.38412 2.87793,-6.53516 0.63346,-2.15104 0.95019,-4.32031 0.9502,-6.50781 -1e-5,-2.19661 -0.31674,-4.37043 -0.9502,-6.52149 -0.63346,-2.15102 -1.59277,-4.32941 -2.87793,-6.53515 l 1.76367,0 c 1.54037,2.07814 2.67969,4.18133 3.41797,6.30957 0.73828,2.12826 1.10742,4.37729 1.10743,6.74707 -1e-5,2.36068 -0.36915,4.60514 -1.10743,6.7334 -0.73828,2.12825 -1.8776,4.23144 -3.41797,6.30957 l 0,0 z m -49.92968,21.28382 -7.16407,-20.13867 2.83008,0 5.79688,16.85742 5.61914,-16.85742 2.85742,0 -7.08203,20.13867 -2.85742,0 z m 23.73437,-2.46094 -2.21484,-1.8457 1.33984,-1.70899 2.69336,2.20118 c 0.62889,-0.68359 1.10741,-1.55859 1.43555,-2.625 0.32811,-1.0664 0.49217,-2.26953 0.49219,-3.60938 -2e-5,-2.58853 -0.59019,-4.60741 -1.77051,-6.05664 -1.18035,-1.4492 -2.8187,-2.17381 -4.91504,-2.17383 -2.10548,2e-5 -3.75294,0.72463 -4.94238,2.17383 -1.18946,1.44923 -1.78419,3.46811 -1.78418,6.05664 -1e-5,2.57944 0.59472,4.59604 1.78418,6.04981 1.18944,1.45377 2.8369,2.18066 4.94238,2.18066 0.55598,0 1.07551,-0.0524 1.55859,-0.15723 0.48306,-0.10481 0.94335,-0.2666 1.38086,-0.48535 l 0,0 z m 2.20117,1.73633 c -0.78387,0.42839 -1.59962,0.74967 -2.44726,0.96387 -0.84767,0.21419 -1.74546,0.32129 -2.69336,0.32129 -2.98959,0 -5.32976,-0.93653 -7.02051,-2.80957 -1.69076,-1.87305 -2.53613,-4.47298 -2.53613,-7.79981 0,-3.32681 0.84537,-5.92674 2.53613,-7.7998 1.69075,-1.87303 4.03092,-2.80955 7.02051,-2.80957 2.96222,2e-5 5.28872,0.9411 6.97949,2.82324 1.69074,1.88218 2.53611,4.47755 2.53613,7.78613 -2e-5,1.63152 -0.21421,3.09669 -0.64257,4.39551 -0.42841,1.29883 -1.08466,2.47233 -1.96875,3.52051 l 2.41992,2.02343 -1.35352,1.70899 -2.83008,-2.32422 z m 12.98829,6.52148 c -1.5586,-2.08724 -2.70932,-4.19726 -3.45215,-6.33007 -0.74284,-2.13281 -1.11426,-4.37044 -1.11426,-6.71289 0,-2.35156 0.37142,-4.59374 1.11426,-6.72657 0.74283,-2.13279 1.89355,-4.24282 3.45215,-6.33008 l 1.76367,0 c -1.29428,2.20575 -2.25815,4.38414 -2.8916,6.53516 -0.63347,2.15105 -0.9502,4.32488 -0.9502,6.52149 0,2.1875 0.31673,4.35677 0.9502,6.50781 0.63345,2.15104 1.59732,4.32942 2.8916,6.53515 l -1.76367,0 z m 5.61914,-18.86718 c -10e-6,1.25782 0.34407,2.2627 1.03222,3.01465 0.68815,0.75196 1.60644,1.12793 2.75489,1.12792 1.26691,1e-5 2.26496,-0.37141 2.99414,-1.11425 0.72915,-0.74283 1.09373,-1.76138 1.09375,-3.05567 -2e-5,-1.30337 -0.36004,-2.34015 -1.08008,-3.11035 -0.72006,-0.77016 -1.68621,-1.15525 -2.89844,-1.15527 -1.17579,2e-5 -2.11915,0.39194 -2.83008,1.17578 -0.71094,0.78387 -1.06641,1.82293 -1.0664,3.11719 l 0,0 z m -2.54297,8.25781 2.57031,0 c 0.0273,0.96615 0.35091,1.72494 0.9707,2.27637 0.61979,0.55143 1.46289,0.82715 2.5293,0.82714 1.42187,1e-5 2.51106,-0.58105 3.26758,-1.74316 0.7565,-1.1621 1.19855,-2.93261 1.32617,-5.31152 -0.54689,0.70183 -1.21453,1.23731 -2.00293,1.60644 -0.78842,0.36915 -1.67026,0.55372 -2.64551,0.55371 -1.85026,10e-6 -3.34505,-0.59016 -4.48437,-1.7705 -1.13933,-1.18033 -1.70899,-2.73665 -1.70899,-4.66895 0,-1.95051 0.60384,-3.52733 1.81153,-4.73047 1.20767,-1.2031 2.80045,-1.80467 4.77832,-1.80469 2.26952,2e-5 4.01268,0.78843 5.22949,2.36524 1.21678,1.57684 1.82518,3.85092 1.82519,6.82226 -1e-5,3.51824 -0.64259,6.22299 -1.92773,8.11426 -1.28517,1.89128 -3.1172,2.83692 -5.49609,2.83692 -1.85027,0 -3.31772,-0.48536 -4.40235,-1.45606 -1.08463,-0.9707 -1.63151,-2.27636 -1.64062,-3.91699 l 0,0 z m 16.48828,10.60937 -1.76367,0 c 1.28515,-2.20573 2.24446,-4.38411 2.87793,-6.53515 0.63346,-2.15104 0.95019,-4.32031 0.95019,-6.50781 0,-2.19661 -0.31673,-4.37044 -0.95019,-6.52149 -0.63347,-2.15102 -1.59278,-4.32941 -2.87793,-6.53516 l 1.76367,0 c 1.54036,2.07815 2.67968,4.18134 3.41797,6.30958 0.73827,2.12826 1.10741,4.37728 1.10742,6.74707 -1e-5,2.36068 -0.36915,4.60514 -1.10742,6.73339 -0.73829,2.12826 -1.87761,4.23145 -3.41797,6.30957 l 0,0 z"
       id="text4151"
       style="font-size:28px;font-style:normal;font-variant:normal;font-weight:normal;font-stretch:normal;text-align:center;line-height:96.71677947%;writing-mode:lr-tb;text-anchor:middle;fill:#000000;fill-opacity:1;stroke:none;font-family:Swis721 BT;-inkscape-font-specification:Swis721 BT"
       sodipodi:nodetypes="ccccssssssssscccssssssssscccccsssccssscccsssssssccccssscsssssssssssccccsssccsssccccccccccccccssssssssscccssssssssscccccsssccssscccsssssssccccssscsssssssssssccccsssccssscc" />
    <rect
       width="180"
       height="25"
       x="83.779488"
       y="651.8183"
       id="rect4159"
       style="fill:#000000;fill-opacity:1;fill-rule:evenodd;stroke:#000000;stroke-width:1;stroke-linecap:butt;stroke-linejoin:miter;stroke-miterlimit:4;stroke-opacity:1;stroke-dasharray:none;stroke-dashoffset:0;marker:none;visibility:visible;display:inline;overflow:visible;enable-background:accumulate" />
    <rect
       width="3"
       height="25"
       x="83.779488"
       y="651.8183"
       id="rect4161"
       style="fill:#ffffff;fill-opacity:1;fill-rule:evenodd;stroke:none;stroke-width:1;marker:none;visibility:visible;display:inline;overflow:visible;enable-background:accumulate" />
    <use
       transform="translate(-484.53882,490.5388)"
       id="use4163"
       x="0"
       y="0"
       width="1000"
       height="1000"
       xlink:href="#rect3328" />
    <use
       transform="translate(-478.53882,490.5388)"
       id="use4165"
       x="0"
       y="0"
       width="1000"
       height="1000"
       xlink:href="#rect3328" />
    <path
       d="m 219.99921,438.81747 -38.09912,0 19.04956,-28.22158 19.04956,28.22158 z"
       id="path4179"
       style="fill:#000000;fill-opacity:1;fill-rule:evenodd;stroke:none;stroke-width:1;marker:none;visibility:visible;display:inline;overflow:visible;enable-background:accumulate" />
    <path
       d="m 219.99921,373.9013 -38.09912,0 19.04956,28.22158 19.04956,-28.22158 z"
       id="path4181"
       style="fill:#000000;fill-opacity:1;fill-rule:evenodd;stroke:none;stroke-width:1;marker:none;visibility:visible;display:inline;overflow:visible;enable-background:accumulate" />
    <path
       d="m 316.14327,469.61478 -38.09913,0 19.04957,-28.22158 19.04956,28.22158 z"
       id="path4183"
       style="fill:#000000;fill-opacity:1;fill-rule:evenodd;stroke:none;stroke-width:1;marker:none;visibility:visible;display:inline;overflow:visible;enable-background:accumulate" />
    <path
       d="m 316.14327,404.69862 -38.09913,0 19.04957,28.22157 19.04956,-28.22157 z"
       id="path4185"
       style="fill:#000000;fill-opacity:1;fill-rule:evenodd;stroke:none;stroke-width:1;marker:none;visibility:visible;display:inline;overflow:visible;enable-background:accumulate" />
    <rect
       width="4.3199978"
       height="54.92569"
       x="198.78964"
       y="395.83722"
       id="rect4187"
       style="fill:#000000;fill-opacity:1;fill-rule:evenodd;stroke:none;stroke-width:1;marker:none;visibility:visible;display:inline;overflow:visible;enable-background:accumulate" />
    <rect
       width="4.3199978"
       height="54.92569"
       x="294.93375"
       y="426.61914"
       id="rect4189"
       style="fill:#000000;fill-opacity:1;fill-rule:evenodd;stroke:none;stroke-width:1;marker:none;visibility:visible;display:inline;overflow:visible;enable-background:accumulate" />
    <path
       d="m 193.51901,447.29189 0,175.33471 c 0.58413,0.53761 1.20778,1.02583 1.95073,1.45478 1.30827,0.75534 2.72175,1.21385 4.13292,1.38866 1.41116,0.17482 2.81267,0.065 4.16597,-0.29757 1.3533,-0.36261 2.66759,-0.99456 3.80228,-1.85154 0.31439,-0.23743 0.5038,-0.61944 0.79352,-0.89271 l 0,-175.13633 -14.84542,0 z"
       id="path4191"
       style="fill:url(#linearGradient4253);fill-opacity:1;fill-rule:evenodd;stroke:#000000;stroke-width:1.05799997;stroke-linecap:butt;stroke-linejoin:miter;stroke-miterlimit:4;stroke-opacity:1;stroke-dasharray:none;stroke-dashoffset:0;marker:none;visibility:visible;display:inline;overflow:visible;enable-background:accumulate" />
    <path
       d="m 289.68528,478.07383 -10.58025,115.58931 -31.74078,11.37378 0,20.10249 c 0.32837,0.0719 0.62819,0.28968 0.95884,0.33063 1.41116,0.17482 2.84574,0.065 4.19904,-0.29757 1.3533,-0.36261 2.63452,-0.99456 3.76921,-1.85154 1.1347,-0.85698 2.12119,-1.93194 2.87651,-3.24021 0.50356,0.87218 1.06152,1.62361 1.71929,2.28137 0.65778,0.65777 1.40919,1.21573 2.28137,1.71929 1.30827,0.75534 2.72175,1.21385 4.13292,1.38866 1.41116,0.17482 2.84574,0.065 4.19904,-0.29757 1.3533,-0.36261 2.63452,-0.99456 3.76921,-1.85154 1.13469,-0.85698 2.12119,-1.93194 2.87651,-3.24021 0.50356,0.87218 1.06152,1.62361 1.71929,2.28137 0.65778,0.65777 1.4092,1.21573 2.28137,1.71929 1.30827,0.75534 2.68869,1.21385 4.09985,1.38866 1.41116,0.17482 2.84574,0.065 4.19904,-0.29757 1.3533,-0.36261 2.63453,-0.99456 3.76922,-1.85154 1.13469,-0.85698 2.12118,-1.93194 2.8765,-3.24021 0.50356,0.87218 1.06152,1.62361 1.7193,2.28137 0.65777,0.65777 1.40919,1.21573 2.28136,1.71929 1.30827,0.75534 2.72175,1.21385 4.13292,1.38866 1.41116,0.17482 2.81267,0.065 4.16597,-0.29757 1.3533,-0.36261 2.66759,-0.99456 3.80228,-1.85154 1.13469,-0.85698 2.12119,-1.93194 2.87651,-3.24021 0.50356,0.87218 1.06152,1.62361 1.71929,2.28137 0.65778,0.65777 1.4092,1.21573 2.28137,1.71929 1.30827,0.75534 2.68869,1.21385 4.09985,1.38866 1.41117,0.17482 2.84574,0.065 4.19904,-0.29757 1.3533,-0.36261 2.63453,-0.99456 3.76922,-1.85154 1.13469,-0.85698 2.12117,-1.93194 2.87651,-3.24021 0.50355,0.87218 1.06151,1.62361 1.71929,2.28137 0.65777,0.65777 1.40919,1.21573 2.28137,1.71929 1.30827,0.75534 2.72175,1.21385 4.13291,1.38866 1.25436,0.1554 2.48739,0.007 3.70309,-0.2645 l 0,-20.16862 -31.74077,-11.37378 -10.58026,-115.58931 -14.84543,0 z"
       id="path4193"
       style="fill:url(#linearGradient4509);fill-opacity:1;fill-rule:evenodd;stroke:#000000;stroke-width:1.05802584;stroke-linecap:butt;stroke-linejoin:miter;stroke-miterlimit:4;stroke-opacity:1;stroke-dashoffset:0;marker:none;visibility:visible;display:inline;overflow:visible;enable-background:accumulate" />
    <path
       d="m 229.39042,619.56648 c -3.02132,5.23308 -9.72055,7.02814 -14.95363,4.00682 -1.74436,-1.00711 -2.9997,-2.26246 -4.00682,-4.00682 -3.02132,5.23308 -9.72054,7.02814 -14.95362,4.00682 -1.74437,-1.00711 -2.99971,-2.26246 -4.00682,-4.00682 -3.02131,5.23308 -9.72054,7.02814 -14.95362,4.00682 -1.74438,-1.00711 -2.9997,-2.26246 -4.00682,-4.00682"
       id="path4195"
       style="fill:none;stroke:#0000ff;stroke-width:2.11605167;stroke-linecap:butt;stroke-linejoin:miter;stroke-miterlimit:4;stroke-opacity:1;stroke-dashoffset:0;marker:none;visibility:visible;display:inline;overflow:visible;enable-background:accumulate" />
    <path
       d="m 353.97507,619.56648 c -3.02132,5.23308 -9.72055,7.02814 -14.95363,4.00682 -1.74437,-1.00711 -2.99971,-2.26246 -4.00682,-4.00682 -3.02132,5.23308 -9.72055,7.02814 -14.95363,4.00682 -1.74436,-1.00711 -2.9997,-2.26246 -4.00681,-4.00682 -3.02132,5.23308 -9.72055,7.02814 -14.95363,4.00682 -1.74437,-1.00711 -2.99971,-2.26246 -4.00682,-4.00682 -3.02132,5.23308 -9.72055,7.02814 -14.95363,4.00682 -1.74437,-1.00711 -2.9997,-2.26246 -4.00682,-4.00682 -3.02132,5.23308 -9.72055,7.02814 -14.95363,4.00682 -1.74436,-1.00711 -2.9997,-2.26246 -4.00681,-4.00682 -3.02131,5.23308 -9.72054,7.02814 -14.95362,4.00682 -1.74438,-1.00711 -2.99971,-2.26246 -4.00682,-4.00682"
       id="path4197"
       style="fill:none;stroke:#0000ff;stroke-width:2.11605167;stroke-linecap:butt;stroke-linejoin:miter;stroke-miterlimit:4;stroke-opacity:1;stroke-dashoffset:0;marker:none;visibility:visible;display:inline;overflow:visible;enable-background:accumulate" />
    <use
       transform="translate(-472.53882,490.5388)"
       id="use4441"
       x="0"
       y="0"
       width="1000"
       height="1000"
       xlink:href="#rect3328" />
    <use
       transform="translate(-466.53882,490.5388)"
       id="use4443"
       x="0"
       y="0"
       width="1000"
       height="1000"
       xlink:href="#rect3328" />
    <use
       transform="translate(-460.53882,490.5388)"
       id="use4445"
       x="0"
       y="0"
       width="1000"
       height="1000"
       xlink:href="#rect3328" />
    <use
       transform="translate(-454.53882,490.5388)"
       id="use4447"
       x="0"
       y="0"
       width="1000"
       height="1000"
       xlink:href="#rect3328" />
    <use
       transform="translate(-448.53882,490.5388)"
       id="use4449"
       x="0"
       y="0"
       width="1000"
       height="1000"
       xlink:href="#rect3328" />
    <use
       transform="translate(-442.53882,490.5388)"
       id="use4451"
       x="0"
       y="0"
       width="1000"
       height="1000"
       xlink:href="#rect3328" />
    <use
       transform="translate(-400.53882,490.5388)"
       id="use4471"
       x="0"
       y="0"
       width="1000"
       height="1000"
       xlink:href="#rect3328" />
    <use
       transform="translate(-394.53882,490.5388)"
       id="use4473"
       x="0"
       y="0"
       width="1000"
       height="1000"
       xlink:href="#rect3328" />
    <use
       transform="translate(-388.53882,490.5388)"
       id="use4475"
       x="0"
       y="0"
       width="1000"
       height="1000"
       xlink:href="#rect3328" />
    <use
       transform="translate(-382.53882,490.5388)"
       id="use4477"
       x="0"
       y="0"
       width="1000"
       height="1000"
       xlink:href="#rect3328" />
    <use
       transform="translate(-376.53882,490.5388)"
       id="use4479"
       x="0"
       y="0"
       width="1000"
       height="1000"
       xlink:href="#rect3328" />
    <use
       transform="translate(-370.53882,490.5388)"
       id="use4481"
       x="0"
       y="0"
       width="1000"
       height="1000"
       xlink:href="#rect3328" />
    <use
       transform="translate(-364.53882,490.5388)"
       id="use4483"
       x="0"
       y="0"
       width="1000"
       height="1000"
       xlink:href="#rect3328" />
    <use
       transform="translate(-358.53882,490.5388)"
       id="use4485"
       x="0"
       y="0"
       width="1000"
       height="1000"
       xlink:href="#rect3328" />
    <use
       transform="translate(-352.53882,490.5388)"
       id="use4487"
       x="0"
       y="0"
       width="1000"
       height="1000"
       xlink:href="#rect3328" />
  </g>
</svg>
