<?xml version="1.0" encoding="UTF-8" standalone="no"?>
<svg
   xmlns:dc="http://purl.org/dc/elements/1.1/"
   xmlns:cc="http://creativecommons.org/ns#"
   xmlns:rdf="http://www.w3.org/1999/02/22-rdf-syntax-ns#"
   xmlns="http://www.w3.org/2000/svg"
   xmlns:sodipodi="http://sodipodi.sourceforge.net/DTD/sodipodi-0.dtd"
   xmlns:inkscape="http://www.inkscape.org/namespaces/inkscape"
   width="350" height="704" viewBox="162 27 350 704"
   version="1.1"
   inkscape:version="0.48.3.1 r9886">
  <metadata>
    <rdf:RDF>
      <cc:Work rdf:about="">
        <dc:format>image/svg+xml</dc:format>
        <dc:type rdf:resource="http://purl.org/dc/dcmitype/StillImage" />
        <dc:title></dc:title>
      </cc:Work>
    </rdf:RDF>
  </metadata>
  <g
     inkscape:label="Calque 1"
     inkscape:groupmode="layer"
     id="layer1">
    <g
       id="g3763"
       transform="matrix(1,0,0,0.98963262,0,5.9128953)">
      <g
         id="g3767"
         style="fill:#f5e817;fill-opacity:1">
        <rect
           style="fill:#f5e817;fill-opacity:1;stroke:#000000;stroke-width:3;stroke-miterlimit:4;stroke-opacity:1;stroke-dasharray:none"
           id="rect2985"
           width="291.42856"
           height="62.857143"
           x="191.42857"
           y="643.79077" />
        <path
           style="fill:#f5e817;fill-opacity:1;stroke:#000000;stroke-width:3;stroke-linecap:butt;stroke-linejoin:miter;stroke-miterlimit:4;stroke-opacity:1;stroke-dasharray:none"
           d="m 191.56536,642.05751 c 0,0 -18.62414,-72.33557 139.61142,-71.72084 176.03099,0.68387 150.66598,73.74114 150.66598,73.74114"
           id="path3761"
           inkscape:connector-curvature="0"
           sodipodi:nodetypes="csc" />
      </g>
    </g>
    <path
       style="fill:#f5e617;fill-opacity:1;stroke:#000000;stroke-width:3;stroke-linecap:butt;stroke-linejoin:miter;stroke-opacity:1;stroke-miterlimit:4;stroke-dasharray:none"
       d="m 303.2471,152.86726 48.08738,-0.0433 56.52266,424.53825 c -91.64634,-15.89878 -155.71428,0 -155.71428,0 z"
       id="path3808"
       inkscape:connector-curvature="0"
       sodipodi:nodetypes="ccccc" />
    <g
       id="g3795"
       transform="matrix(1.09922,0,0,1,-31.991014,0)">
      <path
         sodipodi:nodetypes="ccccc"
         inkscape:connector-curvature="0"
         id="path3789"
         d="m 286.83648,572.06631 c -59.54371,21.30349 -49.69362,71.72444 -49.69362,71.72444 l 51.78571,0.35715 c 0,0 -7.86452,-30.8332 29.57107,-73.92858 z"
         style="fill:#1e17f5;fill-opacity:1;stroke:#000000;stroke-width:1px;stroke-linecap:butt;stroke-linejoin:miter;stroke-opacity:1" />
      <path
         sodipodi:nodetypes="ccccc"
         inkscape:connector-curvature="0"
         id="path3791"
         d="m 237.38585,643.75548 51.0127,0 10e-6,61.87184 -51.01271,0.50508 z"
         style="fill:#1e17f5;fill-opacity:1;stroke:#000000;stroke-width:1px;stroke-linecap:butt;stroke-linejoin:miter;stroke-opacity:1" />
      <path
         sodipodi:nodetypes="ccccc"
         inkscape:connector-curvature="0"
         id="path3793"
         d="m 284.35794,572.03465 30.31247,-419.1214 7.75471,0.028 -4.22711,417.07308 z"
         style="fill:#1e17f5;fill-opacity:1;stroke:#000000;stroke-width:1px;stroke-linecap:butt;stroke-linejoin:miter;stroke-opacity:1" />
    </g>
    <g
       id="g3800"
       transform="matrix(-1.178944,0,0,1,712.98543,0)">
      <path
         style="fill:#1e17f5;fill-opacity:1;stroke:#000000;stroke-width:1px;stroke-linecap:butt;stroke-linejoin:miter;stroke-opacity:1"
         d="m 286.83648,572.06631 c -59.54371,21.30349 -49.69362,71.72444 -49.69362,71.72444 l 51.78571,0.35715 c 0,0 -7.86452,-30.8332 29.57107,-73.92858 z"
         id="path3802"
         inkscape:connector-curvature="0"
         sodipodi:nodetypes="ccccc" />
      <path
         style="fill:#1e17f5;fill-opacity:1;stroke:#000000;stroke-width:1px;stroke-linecap:butt;stroke-linejoin:miter;stroke-opacity:1"
         d="m 237.38585,643.75548 51.0127,0 10e-6,61.87184 -51.01271,0.50508 z"
         id="path3804"
         inkscape:connector-curvature="0"
         sodipodi:nodetypes="ccccc" />
      <path
         style="fill:#1e17f5;fill-opacity:1;stroke:#000000;stroke-width:1px;stroke-linecap:butt;stroke-linejoin:miter;stroke-opacity:1"
         d="m 284.35794,572.03465 31.56247,-419.1214 7.93329,0.028 -5.65569,417.07308 z"
         id="path3806"
         inkscape:connector-curvature="0"
         sodipodi:nodetypes="ccccc" />
    </g>
    <path
       style="fill:#f5e617;fill-opacity:1;stroke:#000000;stroke-width:4.46438646;stroke-linecap:butt;stroke-linejoin:miter;stroke-miterlimit:4;stroke-opacity:1;stroke-dasharray:none"
       d="m 327.11823,130.81504 13.07802,0 -0.38465,-28.63959 28.46391,0.36717 0,-24.600673 -30.0025,0 0,-29.373932 -25.38674,0 0,29.373932 -27.69461,0 0,24.233503 28.46391,0 0,28.63957 z"
       id="path3829"
       inkscape:connector-curvature="0"
       sodipodi:nodetypes="cccccccccccccc" />
  </g>
</svg>
